<mxfile host="app.diagrams.net" modified="2022-04-12T16:43:33.956Z" agent="5.0 (Windows)" etag="8dZ4nhwPfihnRxd9Cd_a" version="17.4.3" type="github">
  <diagram id="axB0tvixqJlDSB1nHbte" name="Page-1">
    <mxGraphModel dx="2234" dy="1200" grid="1" gridSize="10" guides="1" tooltips="1" connect="1" arrows="1" fold="1" page="1" pageScale="1" pageWidth="2339" pageHeight="3300" math="0" shadow="0">
      <root>
        <mxCell id="0" />
        <mxCell id="1" parent="0" />
        <mxCell id="zDprbDjapaQS7rtPQA_h-1" value="User" style="shape=table;startSize=30;container=1;collapsible=1;childLayout=tableLayout;fixedRows=1;rowLines=0;fontStyle=1;align=center;resizeLast=1;" vertex="1" parent="1">
          <mxGeometry x="40" y="40" width="180" height="200" as="geometry" />
        </mxCell>
        <mxCell id="zDprbDjapaQS7rtPQA_h-2" value="" style="shape=tableRow;horizontal=0;startSize=0;swimlaneHead=0;swimlaneBody=0;fillColor=none;collapsible=0;dropTarget=0;points=[[0,0.5],[1,0.5]];portConstraint=eastwest;top=0;left=0;right=0;bottom=0;" vertex="1" parent="zDprbDjapaQS7rtPQA_h-1">
          <mxGeometry y="30" width="180" height="30" as="geometry" />
        </mxCell>
        <mxCell id="zDprbDjapaQS7rtPQA_h-3" value="PK" style="shape=partialRectangle;connectable=0;fillColor=none;top=0;left=0;bottom=0;right=0;fontStyle=1;overflow=hidden;" vertex="1" parent="zDprbDjapaQS7rtPQA_h-2">
          <mxGeometry width="60" height="30" as="geometry">
            <mxRectangle width="60" height="30" as="alternateBounds" />
          </mxGeometry>
        </mxCell>
        <mxCell id="zDprbDjapaQS7rtPQA_h-4" value="Id" style="shape=partialRectangle;connectable=0;fillColor=none;top=0;left=0;bottom=0;right=0;align=left;spacingLeft=6;fontStyle=5;overflow=hidden;" vertex="1" parent="zDprbDjapaQS7rtPQA_h-2">
          <mxGeometry x="60" width="120" height="30" as="geometry">
            <mxRectangle width="120" height="30" as="alternateBounds" />
          </mxGeometry>
        </mxCell>
        <mxCell id="zDprbDjapaQS7rtPQA_h-5" value="" style="shape=tableRow;horizontal=0;startSize=0;swimlaneHead=0;swimlaneBody=0;fillColor=none;collapsible=0;dropTarget=0;points=[[0,0.5],[1,0.5]];portConstraint=eastwest;top=0;left=0;right=0;bottom=1;" vertex="1" parent="zDprbDjapaQS7rtPQA_h-1">
          <mxGeometry y="60" width="180" height="50" as="geometry" />
        </mxCell>
        <mxCell id="zDprbDjapaQS7rtPQA_h-6" value="" style="shape=partialRectangle;connectable=0;fillColor=none;top=0;left=0;bottom=0;right=0;fontStyle=1;overflow=hidden;" vertex="1" parent="zDprbDjapaQS7rtPQA_h-5">
          <mxGeometry width="60" height="50" as="geometry">
            <mxRectangle width="60" height="50" as="alternateBounds" />
          </mxGeometry>
        </mxCell>
        <mxCell id="zDprbDjapaQS7rtPQA_h-7" value="" style="shape=partialRectangle;connectable=0;fillColor=none;top=0;left=0;bottom=0;right=0;align=left;spacingLeft=6;fontStyle=5;overflow=hidden;" vertex="1" parent="zDprbDjapaQS7rtPQA_h-5">
          <mxGeometry x="60" width="120" height="50" as="geometry">
            <mxRectangle width="120" height="50" as="alternateBounds" />
          </mxGeometry>
        </mxCell>
        <mxCell id="zDprbDjapaQS7rtPQA_h-8" value="" style="shape=tableRow;horizontal=0;startSize=0;swimlaneHead=0;swimlaneBody=0;fillColor=none;collapsible=0;dropTarget=0;points=[[0,0.5],[1,0.5]];portConstraint=eastwest;top=0;left=0;right=0;bottom=0;" vertex="1" parent="zDprbDjapaQS7rtPQA_h-1">
          <mxGeometry y="110" width="180" height="30" as="geometry" />
        </mxCell>
        <mxCell id="zDprbDjapaQS7rtPQA_h-9" value="" style="shape=partialRectangle;connectable=0;fillColor=none;top=0;left=0;bottom=0;right=0;editable=1;overflow=hidden;" vertex="1" parent="zDprbDjapaQS7rtPQA_h-8">
          <mxGeometry width="60" height="30" as="geometry">
            <mxRectangle width="60" height="30" as="alternateBounds" />
          </mxGeometry>
        </mxCell>
        <mxCell id="zDprbDjapaQS7rtPQA_h-10" value="username" style="shape=partialRectangle;connectable=0;fillColor=none;top=0;left=0;bottom=0;right=0;align=left;spacingLeft=6;overflow=hidden;" vertex="1" parent="zDprbDjapaQS7rtPQA_h-8">
          <mxGeometry x="60" width="120" height="30" as="geometry">
            <mxRectangle width="120" height="30" as="alternateBounds" />
          </mxGeometry>
        </mxCell>
        <mxCell id="zDprbDjapaQS7rtPQA_h-11" value="" style="shape=tableRow;horizontal=0;startSize=0;swimlaneHead=0;swimlaneBody=0;fillColor=none;collapsible=0;dropTarget=0;points=[[0,0.5],[1,0.5]];portConstraint=eastwest;top=0;left=0;right=0;bottom=0;" vertex="1" parent="zDprbDjapaQS7rtPQA_h-1">
          <mxGeometry y="140" width="180" height="30" as="geometry" />
        </mxCell>
        <mxCell id="zDprbDjapaQS7rtPQA_h-12" value="" style="shape=partialRectangle;connectable=0;fillColor=none;top=0;left=0;bottom=0;right=0;editable=1;overflow=hidden;" vertex="1" parent="zDprbDjapaQS7rtPQA_h-11">
          <mxGeometry width="60" height="30" as="geometry">
            <mxRectangle width="60" height="30" as="alternateBounds" />
          </mxGeometry>
        </mxCell>
        <mxCell id="zDprbDjapaQS7rtPQA_h-13" value="firstname" style="shape=partialRectangle;connectable=0;fillColor=none;top=0;left=0;bottom=0;right=0;align=left;spacingLeft=6;overflow=hidden;" vertex="1" parent="zDprbDjapaQS7rtPQA_h-11">
          <mxGeometry x="60" width="120" height="30" as="geometry">
            <mxRectangle width="120" height="30" as="alternateBounds" />
          </mxGeometry>
        </mxCell>
        <mxCell id="zDprbDjapaQS7rtPQA_h-14" value="lastname" style="shape=partialRectangle;connectable=0;fillColor=none;top=0;left=0;bottom=0;right=0;align=left;spacingLeft=6;overflow=hidden;" vertex="1" parent="1">
          <mxGeometry x="100" y="210" width="120" height="30" as="geometry">
            <mxRectangle width="120" height="30" as="alternateBounds" />
          </mxGeometry>
        </mxCell>
        <mxCell id="zDprbDjapaQS7rtPQA_h-15" value="Punto A" style="text;html=1;strokeColor=#82b366;fillColor=#d5e8d4;align=center;verticalAlign=middle;whiteSpace=wrap;rounded=0;fontStyle=1" vertex="1" parent="1">
          <mxGeometry width="60" height="30" as="geometry" />
        </mxCell>
        <mxCell id="zDprbDjapaQS7rtPQA_h-17" value="Meeting" style="shape=table;startSize=30;container=1;collapsible=1;childLayout=tableLayout;fixedRows=1;rowLines=0;fontStyle=1;align=center;resizeLast=1;" vertex="1" parent="1">
          <mxGeometry x="570" y="50" width="180" height="180" as="geometry" />
        </mxCell>
        <mxCell id="zDprbDjapaQS7rtPQA_h-18" value="" style="shape=tableRow;horizontal=0;startSize=0;swimlaneHead=0;swimlaneBody=0;fillColor=none;collapsible=0;dropTarget=0;points=[[0,0.5],[1,0.5]];portConstraint=eastwest;top=0;left=0;right=0;bottom=0;" vertex="1" parent="zDprbDjapaQS7rtPQA_h-17">
          <mxGeometry y="30" width="180" height="30" as="geometry" />
        </mxCell>
        <mxCell id="zDprbDjapaQS7rtPQA_h-19" value="PK" style="shape=partialRectangle;connectable=0;fillColor=none;top=0;left=0;bottom=0;right=0;fontStyle=1;overflow=hidden;" vertex="1" parent="zDprbDjapaQS7rtPQA_h-18">
          <mxGeometry width="60" height="30" as="geometry">
            <mxRectangle width="60" height="30" as="alternateBounds" />
          </mxGeometry>
        </mxCell>
        <mxCell id="zDprbDjapaQS7rtPQA_h-20" value="Id" style="shape=partialRectangle;connectable=0;fillColor=none;top=0;left=0;bottom=0;right=0;align=left;spacingLeft=6;fontStyle=5;overflow=hidden;" vertex="1" parent="zDprbDjapaQS7rtPQA_h-18">
          <mxGeometry x="60" width="120" height="30" as="geometry">
            <mxRectangle width="120" height="30" as="alternateBounds" />
          </mxGeometry>
        </mxCell>
        <mxCell id="zDprbDjapaQS7rtPQA_h-21" value="" style="shape=tableRow;horizontal=0;startSize=0;swimlaneHead=0;swimlaneBody=0;fillColor=none;collapsible=0;dropTarget=0;points=[[0,0.5],[1,0.5]];portConstraint=eastwest;top=0;left=0;right=0;bottom=1;" vertex="1" parent="zDprbDjapaQS7rtPQA_h-17">
          <mxGeometry y="60" width="180" height="30" as="geometry" />
        </mxCell>
        <mxCell id="zDprbDjapaQS7rtPQA_h-22" value="FK" style="shape=partialRectangle;connectable=0;fillColor=none;top=0;left=0;bottom=0;right=0;fontStyle=1;overflow=hidden;" vertex="1" parent="zDprbDjapaQS7rtPQA_h-21">
          <mxGeometry width="60" height="30" as="geometry">
            <mxRectangle width="60" height="30" as="alternateBounds" />
          </mxGeometry>
        </mxCell>
        <mxCell id="zDprbDjapaQS7rtPQA_h-23" value="Room" style="shape=partialRectangle;connectable=0;fillColor=none;top=0;left=0;bottom=0;right=0;align=left;spacingLeft=6;fontStyle=1;overflow=hidden;" vertex="1" parent="zDprbDjapaQS7rtPQA_h-21">
          <mxGeometry x="60" width="120" height="30" as="geometry">
            <mxRectangle width="120" height="30" as="alternateBounds" />
          </mxGeometry>
        </mxCell>
        <mxCell id="zDprbDjapaQS7rtPQA_h-24" value="" style="shape=tableRow;horizontal=0;startSize=0;swimlaneHead=0;swimlaneBody=0;fillColor=none;collapsible=0;dropTarget=0;points=[[0,0.5],[1,0.5]];portConstraint=eastwest;top=0;left=0;right=0;bottom=0;" vertex="1" parent="zDprbDjapaQS7rtPQA_h-17">
          <mxGeometry y="90" width="180" height="30" as="geometry" />
        </mxCell>
        <mxCell id="zDprbDjapaQS7rtPQA_h-25" value="" style="shape=partialRectangle;connectable=0;fillColor=none;top=0;left=0;bottom=0;right=0;editable=1;overflow=hidden;" vertex="1" parent="zDprbDjapaQS7rtPQA_h-24">
          <mxGeometry width="60" height="30" as="geometry">
            <mxRectangle width="60" height="30" as="alternateBounds" />
          </mxGeometry>
        </mxCell>
        <mxCell id="zDprbDjapaQS7rtPQA_h-26" value="date" style="shape=partialRectangle;connectable=0;fillColor=none;top=0;left=0;bottom=0;right=0;align=left;spacingLeft=6;overflow=hidden;" vertex="1" parent="zDprbDjapaQS7rtPQA_h-24">
          <mxGeometry x="60" width="120" height="30" as="geometry">
            <mxRectangle width="120" height="30" as="alternateBounds" />
          </mxGeometry>
        </mxCell>
        <mxCell id="zDprbDjapaQS7rtPQA_h-27" value="" style="shape=tableRow;horizontal=0;startSize=0;swimlaneHead=0;swimlaneBody=0;fillColor=none;collapsible=0;dropTarget=0;points=[[0,0.5],[1,0.5]];portConstraint=eastwest;top=0;left=0;right=0;bottom=0;" vertex="1" parent="zDprbDjapaQS7rtPQA_h-17">
          <mxGeometry y="120" width="180" height="30" as="geometry" />
        </mxCell>
        <mxCell id="zDprbDjapaQS7rtPQA_h-28" value="" style="shape=partialRectangle;connectable=0;fillColor=none;top=0;left=0;bottom=0;right=0;editable=1;overflow=hidden;" vertex="1" parent="zDprbDjapaQS7rtPQA_h-27">
          <mxGeometry width="60" height="30" as="geometry">
            <mxRectangle width="60" height="30" as="alternateBounds" />
          </mxGeometry>
        </mxCell>
        <mxCell id="zDprbDjapaQS7rtPQA_h-29" value="start_hour_minutes" style="shape=partialRectangle;connectable=0;fillColor=none;top=0;left=0;bottom=0;right=0;align=left;spacingLeft=6;overflow=hidden;" vertex="1" parent="zDprbDjapaQS7rtPQA_h-27">
          <mxGeometry x="60" width="120" height="30" as="geometry">
            <mxRectangle width="120" height="30" as="alternateBounds" />
          </mxGeometry>
        </mxCell>
        <mxCell id="zDprbDjapaQS7rtPQA_h-30" value="end_hour_minutes" style="shape=partialRectangle;connectable=0;fillColor=none;top=0;left=0;bottom=0;right=0;align=left;spacingLeft=6;overflow=hidden;" vertex="1" parent="1">
          <mxGeometry x="630" y="200" width="120" height="30" as="geometry">
            <mxRectangle width="120" height="30" as="alternateBounds" />
          </mxGeometry>
        </mxCell>
        <mxCell id="zDprbDjapaQS7rtPQA_h-31" value="Reserve" style="shape=table;startSize=30;container=1;collapsible=1;childLayout=tableLayout;fixedRows=1;rowLines=0;fontStyle=1;align=center;resizeLast=1;" vertex="1" parent="1">
          <mxGeometry x="300" y="40" width="180" height="120" as="geometry" />
        </mxCell>
        <mxCell id="zDprbDjapaQS7rtPQA_h-32" value="" style="shape=tableRow;horizontal=0;startSize=0;swimlaneHead=0;swimlaneBody=0;fillColor=none;collapsible=0;dropTarget=0;points=[[0,0.5],[1,0.5]];portConstraint=eastwest;top=0;left=0;right=0;bottom=0;" vertex="1" parent="zDprbDjapaQS7rtPQA_h-31">
          <mxGeometry y="30" width="180" height="30" as="geometry" />
        </mxCell>
        <mxCell id="zDprbDjapaQS7rtPQA_h-33" value="PK,FK" style="shape=partialRectangle;connectable=0;fillColor=none;top=0;left=0;bottom=0;right=0;fontStyle=1;overflow=hidden;" vertex="1" parent="zDprbDjapaQS7rtPQA_h-32">
          <mxGeometry width="60" height="30" as="geometry">
            <mxRectangle width="60" height="30" as="alternateBounds" />
          </mxGeometry>
        </mxCell>
        <mxCell id="zDprbDjapaQS7rtPQA_h-34" value="Meeting" style="shape=partialRectangle;connectable=0;fillColor=none;top=0;left=0;bottom=0;right=0;align=left;spacingLeft=6;fontStyle=1;overflow=hidden;" vertex="1" parent="zDprbDjapaQS7rtPQA_h-32">
          <mxGeometry x="60" width="120" height="30" as="geometry">
            <mxRectangle width="120" height="30" as="alternateBounds" />
          </mxGeometry>
        </mxCell>
        <mxCell id="zDprbDjapaQS7rtPQA_h-35" value="" style="shape=tableRow;horizontal=0;startSize=0;swimlaneHead=0;swimlaneBody=0;fillColor=none;collapsible=0;dropTarget=0;points=[[0,0.5],[1,0.5]];portConstraint=eastwest;top=0;left=0;right=0;bottom=1;" vertex="1" parent="zDprbDjapaQS7rtPQA_h-31">
          <mxGeometry y="60" width="180" height="30" as="geometry" />
        </mxCell>
        <mxCell id="zDprbDjapaQS7rtPQA_h-36" value="PK,FK" style="shape=partialRectangle;connectable=0;fillColor=none;top=0;left=0;bottom=0;right=0;fontStyle=1;overflow=hidden;" vertex="1" parent="zDprbDjapaQS7rtPQA_h-35">
          <mxGeometry width="60" height="30" as="geometry">
            <mxRectangle width="60" height="30" as="alternateBounds" />
          </mxGeometry>
        </mxCell>
        <mxCell id="zDprbDjapaQS7rtPQA_h-37" value="User" style="shape=partialRectangle;connectable=0;fillColor=none;top=0;left=0;bottom=0;right=0;align=left;spacingLeft=6;fontStyle=1;overflow=hidden;" vertex="1" parent="zDprbDjapaQS7rtPQA_h-35">
          <mxGeometry x="60" width="120" height="30" as="geometry">
            <mxRectangle width="120" height="30" as="alternateBounds" />
          </mxGeometry>
        </mxCell>
        <mxCell id="zDprbDjapaQS7rtPQA_h-41" value="" style="shape=tableRow;horizontal=0;startSize=0;swimlaneHead=0;swimlaneBody=0;fillColor=none;collapsible=0;dropTarget=0;points=[[0,0.5],[1,0.5]];portConstraint=eastwest;top=0;left=0;right=0;bottom=0;" vertex="1" parent="zDprbDjapaQS7rtPQA_h-31">
          <mxGeometry y="90" width="180" height="30" as="geometry" />
        </mxCell>
        <mxCell id="zDprbDjapaQS7rtPQA_h-42" value="" style="shape=partialRectangle;connectable=0;fillColor=none;top=0;left=0;bottom=0;right=0;editable=1;overflow=hidden;" vertex="1" parent="zDprbDjapaQS7rtPQA_h-41">
          <mxGeometry width="60" height="30" as="geometry">
            <mxRectangle width="60" height="30" as="alternateBounds" />
          </mxGeometry>
        </mxCell>
        <mxCell id="zDprbDjapaQS7rtPQA_h-43" value="" style="shape=partialRectangle;connectable=0;fillColor=none;top=0;left=0;bottom=0;right=0;align=left;spacingLeft=6;overflow=hidden;" vertex="1" parent="zDprbDjapaQS7rtPQA_h-41">
          <mxGeometry x="60" width="120" height="30" as="geometry">
            <mxRectangle width="120" height="30" as="alternateBounds" />
          </mxGeometry>
        </mxCell>
        <mxCell id="zDprbDjapaQS7rtPQA_h-44" value="" style="edgeStyle=entityRelationEdgeStyle;fontSize=12;html=1;endArrow=ERoneToMany;startArrow=ERmandOne;rounded=0;entryX=0;entryY=0.5;entryDx=0;entryDy=0;" edge="1" parent="1" target="zDprbDjapaQS7rtPQA_h-32">
          <mxGeometry width="100" height="100" relative="1" as="geometry">
            <mxPoint x="220" y="140" as="sourcePoint" />
            <mxPoint x="320" y="40" as="targetPoint" />
          </mxGeometry>
        </mxCell>
        <mxCell id="zDprbDjapaQS7rtPQA_h-45" value="" style="edgeStyle=entityRelationEdgeStyle;fontSize=12;html=1;endArrow=ERoneToMany;startArrow=ERmandOne;rounded=0;entryX=1;entryY=0.5;entryDx=0;entryDy=0;exitX=0;exitY=0.5;exitDx=0;exitDy=0;" edge="1" parent="1" source="zDprbDjapaQS7rtPQA_h-24" target="zDprbDjapaQS7rtPQA_h-32">
          <mxGeometry width="100" height="100" relative="1" as="geometry">
            <mxPoint x="230" y="150" as="sourcePoint" />
            <mxPoint x="330" y="95" as="targetPoint" />
          </mxGeometry>
        </mxCell>
        <mxCell id="zDprbDjapaQS7rtPQA_h-46" value="Room" style="shape=table;startSize=30;container=1;collapsible=1;childLayout=tableLayout;fixedRows=1;rowLines=0;fontStyle=1;align=center;resizeLast=1;" vertex="1" parent="1">
          <mxGeometry x="840" y="40" width="180" height="150" as="geometry" />
        </mxCell>
        <mxCell id="zDprbDjapaQS7rtPQA_h-47" value="" style="shape=tableRow;horizontal=0;startSize=0;swimlaneHead=0;swimlaneBody=0;fillColor=none;collapsible=0;dropTarget=0;points=[[0,0.5],[1,0.5]];portConstraint=eastwest;top=0;left=0;right=0;bottom=0;" vertex="1" parent="zDprbDjapaQS7rtPQA_h-46">
          <mxGeometry y="30" width="180" height="30" as="geometry" />
        </mxCell>
        <mxCell id="zDprbDjapaQS7rtPQA_h-48" value="PK" style="shape=partialRectangle;connectable=0;fillColor=none;top=0;left=0;bottom=0;right=0;fontStyle=1;overflow=hidden;" vertex="1" parent="zDprbDjapaQS7rtPQA_h-47">
          <mxGeometry width="60" height="30" as="geometry">
            <mxRectangle width="60" height="30" as="alternateBounds" />
          </mxGeometry>
        </mxCell>
        <mxCell id="zDprbDjapaQS7rtPQA_h-49" value="Id" style="shape=partialRectangle;connectable=0;fillColor=none;top=0;left=0;bottom=0;right=0;align=left;spacingLeft=6;fontStyle=5;overflow=hidden;" vertex="1" parent="zDprbDjapaQS7rtPQA_h-47">
          <mxGeometry x="60" width="120" height="30" as="geometry">
            <mxRectangle width="120" height="30" as="alternateBounds" />
          </mxGeometry>
        </mxCell>
        <mxCell id="zDprbDjapaQS7rtPQA_h-50" value="" style="shape=tableRow;horizontal=0;startSize=0;swimlaneHead=0;swimlaneBody=0;fillColor=none;collapsible=0;dropTarget=0;points=[[0,0.5],[1,0.5]];portConstraint=eastwest;top=0;left=0;right=0;bottom=1;" vertex="1" parent="zDprbDjapaQS7rtPQA_h-46">
          <mxGeometry y="60" width="180" height="30" as="geometry" />
        </mxCell>
        <mxCell id="zDprbDjapaQS7rtPQA_h-51" value="" style="shape=partialRectangle;connectable=0;fillColor=none;top=0;left=0;bottom=0;right=0;fontStyle=1;overflow=hidden;" vertex="1" parent="zDprbDjapaQS7rtPQA_h-50">
          <mxGeometry width="60" height="30" as="geometry">
            <mxRectangle width="60" height="30" as="alternateBounds" />
          </mxGeometry>
        </mxCell>
        <mxCell id="zDprbDjapaQS7rtPQA_h-52" value="" style="shape=partialRectangle;connectable=0;fillColor=none;top=0;left=0;bottom=0;right=0;align=left;spacingLeft=6;fontStyle=5;overflow=hidden;" vertex="1" parent="zDprbDjapaQS7rtPQA_h-50">
          <mxGeometry x="60" width="120" height="30" as="geometry">
            <mxRectangle width="120" height="30" as="alternateBounds" />
          </mxGeometry>
        </mxCell>
        <mxCell id="zDprbDjapaQS7rtPQA_h-53" value="" style="shape=tableRow;horizontal=0;startSize=0;swimlaneHead=0;swimlaneBody=0;fillColor=none;collapsible=0;dropTarget=0;points=[[0,0.5],[1,0.5]];portConstraint=eastwest;top=0;left=0;right=0;bottom=0;" vertex="1" parent="zDprbDjapaQS7rtPQA_h-46">
          <mxGeometry y="90" width="180" height="30" as="geometry" />
        </mxCell>
        <mxCell id="zDprbDjapaQS7rtPQA_h-54" value="" style="shape=partialRectangle;connectable=0;fillColor=none;top=0;left=0;bottom=0;right=0;editable=1;overflow=hidden;" vertex="1" parent="zDprbDjapaQS7rtPQA_h-53">
          <mxGeometry width="60" height="30" as="geometry">
            <mxRectangle width="60" height="30" as="alternateBounds" />
          </mxGeometry>
        </mxCell>
        <mxCell id="zDprbDjapaQS7rtPQA_h-55" value="description" style="shape=partialRectangle;connectable=0;fillColor=none;top=0;left=0;bottom=0;right=0;align=left;spacingLeft=6;overflow=hidden;" vertex="1" parent="zDprbDjapaQS7rtPQA_h-53">
          <mxGeometry x="60" width="120" height="30" as="geometry">
            <mxRectangle width="120" height="30" as="alternateBounds" />
          </mxGeometry>
        </mxCell>
        <mxCell id="zDprbDjapaQS7rtPQA_h-56" value="" style="shape=tableRow;horizontal=0;startSize=0;swimlaneHead=0;swimlaneBody=0;fillColor=none;collapsible=0;dropTarget=0;points=[[0,0.5],[1,0.5]];portConstraint=eastwest;top=0;left=0;right=0;bottom=0;" vertex="1" parent="zDprbDjapaQS7rtPQA_h-46">
          <mxGeometry y="120" width="180" height="30" as="geometry" />
        </mxCell>
        <mxCell id="zDprbDjapaQS7rtPQA_h-57" value="" style="shape=partialRectangle;connectable=0;fillColor=none;top=0;left=0;bottom=0;right=0;editable=1;overflow=hidden;" vertex="1" parent="zDprbDjapaQS7rtPQA_h-56">
          <mxGeometry width="60" height="30" as="geometry">
            <mxRectangle width="60" height="30" as="alternateBounds" />
          </mxGeometry>
        </mxCell>
        <mxCell id="zDprbDjapaQS7rtPQA_h-58" value="" style="shape=partialRectangle;connectable=0;fillColor=none;top=0;left=0;bottom=0;right=0;align=left;spacingLeft=6;overflow=hidden;" vertex="1" parent="zDprbDjapaQS7rtPQA_h-56">
          <mxGeometry x="60" width="120" height="30" as="geometry">
            <mxRectangle width="120" height="30" as="alternateBounds" />
          </mxGeometry>
        </mxCell>
        <mxCell id="zDprbDjapaQS7rtPQA_h-59" value="" style="edgeStyle=entityRelationEdgeStyle;fontSize=12;html=1;endArrow=ERoneToMany;startArrow=ERmandOne;rounded=0;entryX=0;entryY=0.5;entryDx=0;entryDy=0;exitX=1.017;exitY=-0.033;exitDx=0;exitDy=0;exitPerimeter=0;" edge="1" parent="1" source="zDprbDjapaQS7rtPQA_h-21" target="zDprbDjapaQS7rtPQA_h-47">
          <mxGeometry width="100" height="100" relative="1" as="geometry">
            <mxPoint x="580" y="165" as="sourcePoint" />
            <mxPoint x="490" y="95" as="targetPoint" />
          </mxGeometry>
        </mxCell>
        <mxCell id="zDprbDjapaQS7rtPQA_h-60" value="" style="shape=image;verticalLabelPosition=bottom;labelBackgroundColor=default;verticalAlign=top;aspect=fixed;imageAspect=0;image=data:image/png,iVBORw0KGgoAAAANSUhEUgAABYAAAAK8CAYAAABWTht2AAAgAElEQVR4XuzdCdh1U90/8IUG8xz+UVFRiEpIgwyRRLNSvUiiNCElQ1IkDVSIoiRSSqkkIomUigwNyFBkzpQpY6X3f37bu077Oc+Z7nPu85yz7/3Z19Xlue9777XX+vzWOe/1fs86a8/1v40jOQgQIECAAAECBAgQIECAAAECBAgQIEBgxgnMJQCecTU1IAIECBAgQIAAAQIECBAgQIAAAQIECBQCAmATgQABAgQIECBAgAABAgQIECBAgAABAjNUoGMAvP7rfjxDh2xYBAgQIECAAAECBAgQIECAAAECBAgQmDkCP//+KzoORgA8c+psJAQIECBAgAABAgQIECBAgAABAgQI1FBAAFzDohsyAQIECBAgQIAAAQIECBAgQIAAAQL1EBAA16PORkmAAAECBAgQIECAAAECBAgQIECAQA0FBMA1LLohEyBAgAABAgQIECBAgAABAgQIECBQDwEBcD3qbJQECBAgQIAAAQIECBAgQIAAAQIECNRQQABcw6IbMgECBAgQIECAAAECBAgQIECAAAEC9RAQANejzkZJgAABAgQIECBAgAABAgQIECBAgEANBQTANSy6IRMgQIAAAQIECBAgQIAAAQIECBAgUA8BAXA96myUBAgQIECAAAECBAgQIECAAAECBAjUUEAAXMOiGzIBAgQIECBAgAABAgQIECBAgAABAvUQEADXo85GSYAAAQIECBAgQIAAAQIECBAgQIBADQUEwDUsuiETIECAAAECBAgQIECAAAECBAgQIFAPAQFwPepslAQIECBAgAABAgQIECBAgAABAgQI1FBAAFzDohsyAQIECBAgQIAAAQIECBAgQIAAAQL1EBAA16PORkmAAAECBAgQIECAAAECBAgQIECAQA0FBMA1LLohEyBAgAABAgQIECBAgAABAgQIECBQDwEBcD3qbJQECBAgQIAAAQIECBAgQIAAAQIECNRQQABcw6IbMgECBAgQIECAAAECBAgQIECAAAEC9RAQANejzkZJgAABAgQIECBAgAABAgQIECBAgEANBQTANSy6IRMgQIAAAQIECBAgQIAAAQIECBAgUA8BAXA96myUBAgQIECAAAECBAgQIECAAAECBAjUUEAAXMOiGzIBAgQIECBAgAABAgQIECBAgAABAvUQEADXo85GSYAAAQIECBAgQIAAAQIECBAgQIBADQUEwDUsuiETIECAAAECBAgQIECAAAECBAgQIFAPAQFwPepslAQIECBAgAABAgQIECBAgAABAgQI1FBAAFzDohsyAQIECBAgQIAAAQIECBAgQIAAAQL1EBAA16PORkmAAAECBAgQIECAAAECBAgQIECAQA0FBMA1LLohEyBAgAABAgQIECBAgAABAgQIECBQDwEBcD3qbJQECBAgQIAAAQIECBAgQIAAAQIECNRQQABcw6IbMgECBAgQIECAAAECBAgQIECAAAEC9RAQANejzkZJgAABAgQIECBAgAABAgQIECBAgEANBQTANSy6IRMgQIAAAQIECBAgQIAAAQIECBAgUA8BAXA96myUBAgQIECAAAECBAgQIECAAAECBAjUUEAAXMOiGzIBAgQIECBAgAABAgQIECBAgAABAvUQEADXo85GSYAAAQIECBAgQIAAAQIECBAgQIBADQUEwDUsuiETIECAAAECBAgQIECAAAECBAgQIFAPAQHwhNd50w2XS+u/8P+lVZ+xaFpwgcc2e3v/A/9O197wj3TKT29Ip51144SP4tHuLbXkvOkDO66Wnr3K4mneeecpfvfPf/0nffuka9LR37qqEmOoSydfvsFyaY/3rd73cKOOMScvveLO9JVvXJWuv+m+vq914tQFur1x59b+85//TQ88+O902ZV3pxNP+Wu64Pd3TP1Gc/CKPKarrr4nvWO3X03pzsNcO6UbOZkAAQIECBAgQIAAAQIECFRQQAA8oUWL0Pe9262cllx83p49jLDts1+6NP3hT3f2PHecJ3z5wBellZ62yGxd+Pjnf59+9subx9k1924RmGoAXL7834/8b/r8kZemU8+8geuIBPoJgMu3jjD4lEY9PnfEpSPq0fDNDhPiDnPt8D3XAgECBAgQIECAAAECBAgQmGwBAfAE1mfbLVdM27zh6WnuuecqenfX3Q+niy75ezrvwtvSfY1VlgvO/5i03guXSWustmRaoPHvOB566JG0+/4XTGwI/NpNn5J23mHVoq/33PvP9M3vX91YJXp/WmqJedPJZ1w/gVWod5fKAfDV1/2jsar3yo4gMR/XWXOp9ILnLVWZ+Vj16uY37lh1ffrZ7b8BsNz/WyA9bfmFZvkQ6auNlfbHffcvEzn8YULcYa6dSAydIkCAAAECBAgQIECAAAEC0yggAJ5GzOloarONntTYJuFZRfgbq/aO/8E16ahvtg/fYkuF/Xd/XnNV7R13PpS22P6s6ejGtLfxrrc+M2356qcW7cbX0Q87+vJpv4cGp0+gHAD3+5X8mI9f/NQLm4HjeRffnvZofCjhmH6B/MZ9Z+PDoddt97OuN4hvEmyx+QrFObfe/mDa8p1nT3+HpqFFIe40IGqCAAECBAgQIECAAAECBAi0EZiRAfDHd18jrfv8ZeZIwX95/i3pI5++eFruFQHa1w9dr7k/7gk/vCZ96dgrurbdGrrFatpJ/Jp3OQA+8IuX2B5gWmbM6BoZJACO3pRXet91zz/Ta9925ug6WeOWpxIAB9MJR26Qln7CfIVYfFPg/EY4P2mHAHjSKqI/BAgQIECAAAECBAgQIDBTBATAQ1ZyOgPgvd//nLTRuk8sehT7+e6893l99W7rxnYRb3/zSsW5/awI7KvRaT6pHAB/6gt/7Pi19Wm+reYGFBg0AI7bnXXips3tS9Z/3Y8H7IHLuglMNQAu7789qa8/AbA5T4AAAQIECBAgQIAAAQIERiMgAB7SdToD4O8f/dK0+KKPL3q096cvSueef2vfvYtrYx/gP/357vTN712d/nr9P2a79kVrLZ22eOXyaaWnLtLcq/Wf//pPuvmWB9LJP7k+ff/H17a9Xw6P8lYAG7/kieltb1opLdVYUfiYeR7dquKOOx8uHuR25HGzrlju9OC3fKN2q5zfufUz03ovWKbZfpwbq0kv+uMd6cuN9m+746G2/cyTOdq8+dYHilB84YUel+KhZLc1vvp++DGXp1/99r+mT152wbTDViulZz1z8bTYIo8r2sznnvqzGwrHdkc5HI0w7eJL7kjvaPS5dQ/cy/9ydzq+sdfxBb+/o2sdX/eK5Rtf0V8+LdnYD/lxj527ODf2dr30iruK7TK6XR/XvmqTJ6cnLjP/bNce/rXLG/ss39f3HCqfOEwAfMYJL2/2pVMAHA8D3HqLp6XnPmuJtOACj53F/pzf3DLbPGo3iEHnc/6GQP6wJObzG161QnrqUxZuzudbbnswfe3bV6Wf/uLRhxPGXHn/O1dNKz990eYK/ZiHP/zJdR3nSazOf9NrnppevPYyafHFHl+0Hcd99/8rXXbl3T1r261wUw2Aj/rsi9PTV1i4aLLbCuBBTct9fWPD8jUvf8qU53OvAPiQ/ddJz15l8eJWN/7t/rTrR89vvhd0unY6X6tRz7e+ccX0wsb7aH6/iPfceJ1//sjL0mYbLdfc5mZSQ/aB3gxcRIAAAQIECBAgQIAAAQKVF5iRAXAVq/L8NZ6QPr33WkXXR7GKt59tMa6+9t605wEXzhawlgPgCFbXf+H/60jcul/sVALgCHf22uXZaeklH/2qersjgtEvNoLcU8+8YbY/58n8qwtuLcLY/BC9ODFC6nfv8et0xV/uKa6LYG77/3lGM5Rrd68ITz+4729n8yiHSkd8/YpGkPn0ZqDe2k7c97NHXNq2vxEqHrDX81I8rKvTEdd/vfHQrmNO+PMsp0QY9cm91mw85OvRUK/dEWH2N06c/dp+Xh+DBsD9bAERe9JGcF2uT2ufbr3jwXTAwX/o+FDDYeZzOQD+6Tk3pTe8coWOfYkPEy7/8z1pj/eu3gx+W/va7kOgqM8XDnhB17kctf3uj/7ac5uXdvWaSgAcr6sDP7p2EcrHB0Nv2+WXbafAMKbRYNxnt/es1nM+n9J47bbbpqZbAHzgPmuntZ6zZNHv1vA3ftdPADzMazXGdkDj9ZYfutkKGEHwry+6LW34okffGwXA/bzLOIcAAQIECBAgQIAAAQIE5pSAAHhOSfe4T3mLhMuvuju9qxFWTtdRDnYiFPzNhbemc359S7qvEaau+/yli0A3BxsRrmz1nnNmuXUOcSPkmHfeeYpVsuU2YuVbrBzMgd4PTrsuHfKVy4o2Vlt5sUbbjy3uEw+4i+PL37gyXXPdoyuUY/VxBK2texnf1Xi41eln31QEgEs1VsZussGyadVnLFZcE/2IVYzxt/JRnswRrp121o3pl41V1Cs9deEiKP3ogY/u1Vx+0F78fNU196RTzrgh3fb3h4pzI8Rc7P9WYrd7AFo5HM0msWL0x41Vw1ddc29jtegC6fWNFb05yL73vn+lV23z09nKeeJRGzYfmBbjPfvXf0u//d0dacH5H5M2Wm/ZtHYj8MoPA/zM4ZfMsm1GOViPUPznjWtjrO2u7RRAd5tfgwTAUcMD9lyzudK03UPgyvM8ahQ1PPvcvxX2qzfmyqYbLte0j3G9bZdfzBbADzuf8/Wx+j2vyo0PDeI1EcdrX/GU5lyL2j3uMXOnxz1u7qKvp/70huJ185rGHCnXJz44Ke+r+6XGw/BWXmnRor3Lrrwrxarm62+6v2199mnMy6ms9o82+wmAY5X1Bo3XdqwQj9d3eLfOozwHhjVt9/rN8zlevy9ce+mmV9zzxz+7sdGXP7Z9/ba+5sp9axf+lj1ar52O12qM7ajPrZsWXvDRlerxfnVKYx5EPSMYfnnjvSm/X+QBCYC7vbv4GwECBAgQIECAAAECBAjMaQEB8JwW73C/j33wuc2VtdO5rUR5RWan4DQCjs/t+/zmyr2f/Pym9MlD/9DsaTls7NRGbGHw3u1WKa659ob70rY7/2KWkfbaA/hTjdXP6zRWQcfRLnSN38eq3Xds9YwiFG13j/Jkjq0TDjv68rbaJ39942aY0+lBe+UVh60P1iuHSnGDTvU65pCXpOWftGDRh8OO/lPjK//XNvuz8w6rFkFzHm9s+dG6tUXZLLaDeO9evynOL197x50PFSubW6+NUD+vWo0Qc/tdf9lx64x2SFMJgCNofM6qi6c3N+qTg7CYJ9vsdM4s93zm0xdJX2wEoznU7hRMl7/q37oX9nTM53Kg2GmFdrl24dNunpT37C7PkXg9fefLGxasF//x72nXj50/G3Gsgt5i8xWK3w/yeu/2xt2unvEBwyFH/an4oKD1mA7Tfl6/8cHL+xrvEfEhUri3Bt/tVvH2E/7GePpZATzoa7Xch/ig4MOfvGgWwqj3/rs/L8XrIB8C4LZvvX5JgAABAgQIECBAgAABAmMSEACPCb71tuWQYZBAqNMwDmt8Df1Zz3x05WxrCFm+JlayfX6/5xfhXOuK1XIAXF7d23rPH3xto2JvzNiv97VvO3OWP3cLgCNA+fYRGzTv3S2sLAezrSFLnsyxsvNlW57elqTcj9hbd7f9ftv2vPKqv9YtOcrhaKfVvdFoOeRrDaRPOHKDtHRjD+XWrSlaO3PcYesVpjc1Vkq/c7dfFX/Oe0XHte/f5/yO2yTsuuOz0qte9uTimk5Bd6d50xpyT+VlEmHjxw763Wz96hSYtrZdtm/1mY75XH6tdZoDZbt2HzZEn8tG5dds+fdnNvbF3v/zv2/Ld/rxmzRW0/8n/f7SO4s9v6dyTDUAjlX7Ef6220N7WNOo1zcOX7/YYqLXhw1l19YV4q0h7p47PTttsv6yBUunlb/ZrJ8AeNDXat7TutvWPPHhxqGfeEFz72sB8FRms3MJECBAgAABAgQIECBAYNQCMzIAfsVLl+u6N+p0osa+ufF15mGPUQXA/YQXue/llZflAKMcAHd7gFT5vNaHf3ULgLd+w9OLB7bF0W6FXdm2vNI4Aq0IGltDoE6BXZxXHuOBX7yk7d68ub1y2PzxRogXD7mLoxzwta5QLfe1U0AYYdERn3lRcWqn1c6d5lN5r+i//PXetP0Hzu049cr3meq2IlMNgPPD87o9wO34L62fnrj0/EXo/aYdz+66Irkc/pXD6+mYz+XX2le/dVU6rrHHcutRnq+t8yyfW17pWw6Ayx9oxFhPOv26dNJp1w/8QL52Bc5v3LFNxulnt3//WWThx6WnN7Y+iS1J8vYs7YLUYU3Lr99+PrzqdL9yiHvF1fc0P7zoFf6GTz8B8CCv1fL7Tes3I1rr0un9c9j/2+B6AgQIECBAgAABAgQIECAwrMCMDID7eZjRsHD5+n4Cj37uVV4ZN11tlsPCfoLGTitGuwW75bENGgCXt7+Ih7vFXradjlhluN+H1ij+3Dqmbg+Ryu2V993d4xMXdi3N+i9YJr28sSdtHOUQslOw29pYp/PKodJUa71D48F1//P6pxW3uuD3t6fvnXpd1zHstdPqaeGFHjflBwuW+351Y7/mrzT2bS4fESpuvvGTGuHio1tcxL6oX/jqnxp9uqNjf6YSNLYzmq75XH5/6LRSsxwAd1s9nedcax3LHx5kkNim48qr7y72Go6VwcMc/ewBnNuP1f0f2fU5zf2my32dDtNOYX2n8ZW31yh/UJTHlPfVztf3+qAjzusnAO72Wuv0Wi2PrdOHBbmf5RX/VgAPM7tdS4AAAQIECBAgQIAAAQLTLSAAHlJ0qgFep9uVV9FNdbVmpzb7DSrz9Z1Cr1EHwIMG9jff+kB6y7t+3hx+nszdVhHn7ROmWvby6r9+XTud12+42K6P5WunMoZu22K0a6ffPYDLHxpEcPeFxl7HEeK3O/oJ6PN17ez6de81n+dEAByrgCM8fO6zlmhrESumL7n8znT896/uGpp3qvFUAuBo48WNhzDGPrVxlOfCdJj241keR6f3k9b/YxSrp/PK5W57ekfbowqApzK2XvucT+X16lwCBAgQIECAAAECBAgQIDCdAjMyAK7iFhDlr+u320O3V9FjFe2zV12iWBV72lk3Fvt9Tke4E/ed1AC4dU/OTqsxy3aDBsCd9ngdZFXhOALgMGjdlqPbnOo3AI42yqtdOz0ksFtI164fVQ+A85hWW3mx9MZXrZBiFW6sxG49IuT87o/+mr507BW9XuKz/H2qAXBcXF79nleoTsd7xFRC0m7vJ+X/Y3TrHQ+mIxomH3n/c4oQuNu86ja3+h1fp/OmMjYB8JSmsJMJECBAgAABAgQIECBAYA4KzMgAeA76Teut8h6p0ehUv0KcHyoW1+avKk/H17u7BTatgx90C4hyyNJrX95u4FMJgAcJ2fO9hw2VprpnannM5ZCp16rIYSbnVALgWO0aexovvujji1t2+sp+nbaAaGcf22Ws87wnpPUaW4us+NRFmg8M6/UgwHZtDRIAl1+f+f1lOt4jpnsLiPhgZ8cP/arYI7rcdrdvRoxqBbAtIIZ5F3EtAQIECBAgQIAAAQIECEyKgAB4UirR6MfOO6yaXrvpU4oedXtgUWuXy/ultj7pfiqh22EHvCA965mLFc2XH3o26hXA5X1tTz7j+vS5Iy4dqCr9BMBf+tQL08orLVq0HyHTFX+5Z8r3GjYAnkroFiu711ljqfTgw480PhT4Q1pwgccWqyLjiP12d9vvt1Pufz8XTCUAjvY22+hJabd3r9Zsul04PZWHwO3dGONG6z6xaO+b37s6feWbj+5BPB3zuZ9Vnf2u0u5nzrXzjtD8gD3XTE9fYeHZxthPfQYJgNutAJ4O06l8oBHj/sbh6xfh9x13PpS22P6s5nA7hbjlfpfnQtlpVAFweWy9HgJXXgk/1Q/w+qm5cwgQIECAAAECBAgQIECAwKACAuBB5UZwXYQjR31u3bTwgo8tWu/28Kl8+7jmi41Qc8nF5y1+1RpSlEPdbg8xiq+of36/5xdft77/gX+nzbY6oznCUQfAsf1FjCHufevtD6Yt33l2R90IZN625YrpgQf/nS694q5UfpBbP2FcOWSPB3Ht//nfd7zXIfuvk1ZecdH0z38+kr7+3b+k75z81+LcYQPgaCNvRRH7se704d90DKLzyu7yvq0nf33jYo7E77Z6z8+LlZLtjtj3db/d1iis/nbbg2mHD5zb96ydagAcDbduBbHLPufNMq5yqNstTGt9HZSD+umYz6MOgN+x1TPSpi99UlqoUaODvnhJOv3sG9u69xsyt7t4qgFwpz2Ao+1hTcuhbmzVsM1O53Sck+U9o1s/wOgU4pY/XIj2W+dVjGFUAXB5bK1bzpTrUj4vfi8A7vutxokECBAgQIAAAQIECBAgMAcEBMBzAHkqtyivOIuvhp90+nXp0KP+1LaJ+Er5AXs9Ly33/xYo/t66oi5+FyuKI/SMI8KTj3zmotkeOhXhxef2fX6zndZwbtQBcPQtwtYIoePotLI1/v7pvddK8847T3HeIV+5LP3gtOuaNv0EwDHWrx+6XtFG+H75G1emb590zWy+5XCudVX1dATA5SAs9m1+x26/6tqH8y6+Pe2x/wXFOeWvpf/1+n+k3Ru/bw2BWz8YCKfw6vcYJAAu28Z9Wlexl4P+sD/kqMvSD0+/frYuledCaxvTMZ9HHQCXX8OdahuDPuqzL26uAI4ant+ocb/HVALgeJ/43L5rNz8kKs+l6XqP+FTjdbnOGk8ouh9j3vvTF802JyPIfd92qzRfe/sceHE69/xbZ3v9tjMrf7jQ7tsRowqAo3Pl+dJpz+/ye2RcIwDudyY7jwABAgQIECBAgAABAgTmhMCMDIDL/w/7qBG7PQRs0HuXA75o4x/3/Sud/7vb03kX3pbua6zOffKyC6QXrLlUWm3lxdNj5pmruE2s2t3rgAuL0K31KHv8+5H/Tb+58NZ0zq9vKdpa+7lLpk3WXy4tMP9jissiRH73Hr+eJbyZEwFwa7h7V2Mf0LMbD7L77e/uSAs2+rZOY7zrv/D/Ncfbbj/QfgLgGGM53I2fr7rmnnTmL25O1990f2Ebe7Su+oxHt8KIo/Vr59MRAEe75a+2x3gjpL3qmnvTUkvMmzbZYNlmH1pXPbaGu1H731x0WzGGONZtrPwNq3JNy1+172deDhIAt7M97Og/pRNPubZ5y7J9hMAxX88+92/ptr8/lFZ66sLFBxaL/d9ewp0e/DXsfB51AByDLe/nHbWNBzP+8fK7CocY5ysaK4SXWWq+4udue9t2qlWe61H7TiuM49rVGx+arPDkhZqvm04raIc1bZ2Tra/fjdZbNq39nCWLVf5xtHvf7BTixvmtHy60fpthlAFw64r062+6L53y0xuK94vWOZvrJQDu513GOQQIECBAgAABAgQIECAwpwQEwENKjyIAji79z+uflt7y2qc1Q7xu3YxAYu9PXdwIJO7reFp5hV6nk+L6D+7729lW7s2JADj6FCFw7HmbA8BO/YzQ8BMH/362fvYbAEe72za2kdhqi6c3g7F294qA8vgfXJOO+r/9Z/M50xUAt668bteHCPjiwXg/b4Th5SOuPeijazcC6wW7zuAb/3Z/44OBi7rOjXYNDBoAR1vHHPKStPyTHu1X+YFe+T6x+nnzxmrQHAa2u38EiB876HdtP9CI84eZz3MiAI65vN+H1kiLLPy4nvXZ9aPnd9wyodPF3d64O13TaS7l84cxza/fvXZ5dlp6yUeD7U6vqZ82Pqj45KF/mO3P3QLgOLm8V3isyt9+11823UYZAMe912qE1x/74Bod34/vufef6epr/5HWWH2JYlwC4K7T3h8JECBAgAABAgQIECBAYA4LCICHBB9VABzdipDvtZsuX6z2fUJjVWhe0Rl/izDn2hv+kU5qrBqNQKWfY+OXPDG9prHCcvknLdRsK/aRvfmWB4r9hmOVYrtjTgXA+d7v3PqZxSrcJRtjjodFxRErF6+/+b70gx9f17GfUwmAo80IT3fYaqXGg+8WT4ss9NhmIHnf/f9Kv7v07+m4E68uvs7eekxXAJzbfesbV2yswl42LfWE+ZqB9F33/DNd9Mc70pePu6JrOPi6VyyfXrXJk9MyjWvz1hhR0zsaK2pj+5C8b3E/86N8zjABcN57OAe8EV5HmFs+IlDbYvMVGqucFy0ebBdHrE6/rbEHdGxBcux3/tyzy4PO5zkRAOfXb9R2rec8IS26yOOac3k66tNvABzvE7c35sJvGt8e+MFp1/YMmgc1LRer3es3+hF7dsfK3Xavqbi+VwAc55S3zShvFTPqADjX8x2N96bY6iLP2XhfOveCW4vX6fvevkpj9f0yBUX5IZo9J7ITCBAgQIAAAQIECBAgQIDAiAVmZAA8YjPNEyBAgACBWQTK+xSv/7of0yFAgAABAgQIECBAgAABAhMjIACemFLoCAECBAhMmsCZ39208Q2Ef6czf3lzOvjLnR+keMKRG6SlGyvxY9uT1233s0kbhv4QIECAAAECBAgQIECAQI0FBMA1Lr6hEyBAgEB3ge8f/dK0eOPBhLHdwzY7ndN2G42dtl8lxXYscZx38e1pj/0vwEqAAAECBAgQIECAAAECBCZGQAA8MaXQEQIECBCYNIE9d3p2sUd3HLGX8W8uui2d+X/7rq/01IVT7Hm90lMXKf4eIfEu+5yXrvjL7HuHT9q49IcAAQIECBAgQIAAAQIE6iMgAK5PrY2UAAECBAYQOGT/ddKzV1m865URDn/soItTPJzOQYAAAQIECBAgQIAAAQIEJklAADxJ1dAXAgQIEJhIgdji4VWbPDkt09jnd9555yn6+O9H/jfdedfD6WeN/YF/cNq1bbeHmMjB6BQBAgQIECBAgAABAgQI1EpAAFyrchssAQIECBAgQIAAAQIECBAgQIAAAQJ1EhAA16naxkqAAAECBFIXp54AACAASURBVAgQIECAAAECBAgQIECAQK0EBMC1KrfBEiBAgAABAgQIECBAgAABAgQIECBQJwEBcJ2qbawECBAgQIAAAQIECBAgQIAAAQIECNRKQABcq3IbLAECBAgQIECAAAECBAgQIECAAAECdRIQANep2sZKgAABAgQIECBAgAABAgQIECBAgECtBATAtSq3wRIgQIAAAQIECBAgQIAAAQIECBAgUCcBAXCdqm2sBAgQIECAAAECBAgQIECAAAECBAjUSkAAXKtyGywBAgQIECBAgAABAgQIECBAgAABAnUSEADXqdrGSoAAAQIECBAgQIAAAQIECBAgQIBArQQEwLUqt8ESIECAAAECBAgQIECAAAECBAgQIFAnAQFwnaptrAQIECBAgAABAgQIECBAgAABAgQI1EpAAFyrchssAQIECBAgQIAAAQIECBAgQIAAAQJ1EhAA16naxkqAAAECBAgQIECAAAECBAgQIECAQK0EBMC1KrfBEiBAgAABAgQIECBAgAABAgQIECBQJwEBcJ2qbawECBAgQIAAAQIECBAgQIAAAQIECNRKQABcq3IbLAECBAgQIECAAAECBAgQIECAAAECdRIQANep2sZKgAABAgQIECBAgAABAgQIECBAgECtBATAtSq3wRIgQIAAAQIECBAgQIAAAQIECBAgUCcBAXCdqm2sBAgQIECAAAECBAgQIECAAAECBAjUSkAAXKtyGywBAgQIECBAgAABAgQIECBAgAABAnUSEADXqdrGSoAAAQIECBAgQIAAAQIECBAgQIBArQQEwLUqt8ESIECAAAECBAgQIECAAAECBAgQIFAnAQFwnaptrAQIECBAgAABAgQIECBAgAABAgQI1EpAAFyrchssAQIECBAgQIAAAQIECBAgQIAAAQJ1EhAA16naxkqAAAECBAgQIECAAAECBAgQIECAQK0EBMC1KrfBEiBAgAABAgQIECBAgAABAgQIECBQJwEBcJ2qbawECBAgQIAAAQIECBAgQIAAAQIECNRKQABcq3IbLAECBAgQIECAAAECBAgQIECAAAECdRIQANep2sZKgAABAgQIECBAgAABAgQIECBAgECtBATAtSq3wRIgQIAAAQIECBAgQIAAAQIECBAgUCeBgQLgOgEZKwEC9RbYdtttC4C55pqrL4jyeb2u6fX3fm44HW30cx/nECBAgAABAgQIECBAgAABAtUU+MpXvtKx43P9b+Oo5rD0mgABAtMjkANgIfD0eGqFAAECBAgQIECAAAECBAgQmLMCAuA56+1uBAhUTKAcAOeu97Pqdk6uBO6nPxVj110CBAgQIECAAAECBAgQIEBgmgQEwNMEqRkCBGamQLsAOEbaT+jaek6na/ppq5vusNfPzMoZFQECBAgQIECAAAECBAgQIBACAmDzgAABAl0EOgXAQmDThgABAgQIECBAgAABAgQIEKiCgAC4ClXSRwIExibw1re+tbj3oKt3rQIeW+ncmAABAgQIECBAgAABAgQIEGgICIBNAwIECHQRyAFwPqVdENxrC4Y5EQL36oMiEyBAgAABAgQIECBAgAABAvUUEADXs+5GTYBAnwLbbLPNbKt/+w10y7fo55phQtxhru2TwmkECBAgQIAAAQIECBAgQIBABQUEwBUsmi4TIDDnBCIAjqPXyt9eAWyv6/OIerXTbeTDXDvnRN2JAAECBAgQIECAAAECBAgQmJMCAuA5qe1eBAhUTiAHwHMqBB4mxB3m2soVRocJECBAgAABAgQIECBAgACBvgQEwH0xOYkAgboKlAPgXiFwrwC23wfJ9WqnUy0Gva6utTVuAgQIECBAgAABAgQIECBQBwEBcB2qbIwECAwssPXWW/fcA7gcDPcKYfvZCqJXG90GM8y1AyO5kAABAgQIECBAgAABAgQIEJhYgYEC4AceeGBiB6RjBAgQmE6Bd7zjHUUAXA5We63k7RbC9rq2HCYPMg4B8CBqriFAgAABAgQIECBAgAABAjNXQAA8c2trZAQITINABMA5lO03BO4Vwo5yFXCve08DiSYIECBAgAABAgQIECBAgACBCgkIgCtULF0lQGDOC+QAeDpD4FGuAhYAz/k54o4ECBAgQIAAAQIECBAgQGCSBQTAk1wdfSNAYOwCO+yww2zbP+SQtVvYOvfcc3ftu1XAYy+tDhAgQIAAAQIECBAgQIAAgVoICIBrUWaDJEBgUIHWADjaKe8JPGgIbBXwoBVxHQECBAgQIECAAAECBAgQIDAVAQHwVLScS4BA7QQiAM6hbx58eQWwALh2U8KACRAgQIAAAQIECBAgQIBApQQEwJUql84SIDCnBXIA3C4E7rUVRHmlcLt+91oFPMx+vsNcO6eN3Y8AAQIECBAgQIAAAQIECBAYnYAAeHS2WiZAYAYIvP3tb095P99yqDonVgEPE+IOc+0MKJshECBAgAABAgQIECBAgAABAv8nIAA2FQgQINBFIALgTnv+9hMCd1sF3C2k7bW6uFfRBMC9hPydAAECBAgQIECAAAECBAjUQ0AAXI86GyUBAgMKRAAcRw5y260Cjr/nVcKttxEADwjvMgIECBAgQIAAAQIECBAgQGBaBATA08KoEQIEZqpAOQAuB8H533ncvYLeXvv9tguOW+8xVWOrgKcq5nwCBAgQIECAAAECBAgQIDDzBATAM6+mRkSAwDQK5AC4HP7OyVXAw4S4w1w7jYSaIkCAAAECBAgQIECAAAECBMYoIAAeI75bEyAw+QKtAXA5CM7/zqPotg1E67n5GvsAT/4c0EMCBAgQIECAAAECBAgQIFBlAQFwlaun7wQIjFygXQAcN81hb2uAO9W9gAXAIy+hGxAgQIAAAQIECBAgQIAAgVoLCIBrXX6DJ0Cgl8C2226b5plnnuK01q0f2u3722kv4Hxtu8C3Vwg86FYOg17Xy8TfCRAgQIAAAQIECBAgQIAAgeoICICrUys9JUBgDAIRAMeq3nbBbv59uVsC4DEUyS0JECBAgAABAgQIECBAgACBjgICYJODAAECXQRyAByntIa78XO7LR86rQzOt2ldmTuqFcC5zwpMgAABAgQIECBAgAABAgQI1FdAAFzf2hs5AQJ9CEQAnAPdcQTA0cVO+wr30f1Ztq3o53znECBAgAABAgQIECBAgAABAjNLQAA8s+ppNAQITLNAOQBuF8a2WwXcab/fXr/v1PVO20r0M1T7APej5BwCBAgQIECAAAECBAgQIDBzBQTAM7e2RkaAwDQI5AA4muoU9rau0O0n6G19oFy3rgqAp6GQmiBAgAABAgQIECBAgAABAjUVEADXtPCGTYBAfwIRAOfwt7wVRL663e/K55fv0i30HdU+wFYA91dnZxEgQIAAAQIECBAgQIAAgZkqIACeqZU1LgIEpkVgmAA4B8HlsLjdv1vPa+24FcDTUkqNECBAgAABAgQIECBAgACBWgoIgGtZdoMmQKBfgbe+9a1tHwJX3uahXUDbbhuI1tW4U9kGYtAHwVkB3G+lnUeAAAECBAgQIECAAAECBGamgAB4ZtbVqAgQmCaBcgAcTeYgtjUAjr+1C3T73fahV1ArAJ6mgmqGAAECBAgQIECAAAECBAjUTEAAXLOCGy4BAlMTiAC4HPwOEwB3Colbf9+uhwLgqdXN2QQIECBAgAABAgQIECBAgMCjAgJgM4EAAQJdBDoFwDm0LW//0Gm171R/LwA2JQkQIECAAAECBAgQIECAAIHpEhAAT5ekdggQmJECOQDOQW95JW7+3VS2fui0D7AtIGbk9DEoAgQIECBAgAABAgQIECAwdgEB8NhLoAMECEyywKABcIxpKg+CEwBP8izQNwIECBAgQIAAAQIECBAgUF2BSgTAp556ajrmmGPSn//85/Svf/2r0F5ggQXSyiuvnHbeeee0xhprVLcCc7Dnt956a9p1113TN7/5zTl418m81ZVXXple97rXFZ277LLLmp3cZJNN0o033pi+//3vp2c84xmT2fkhe/XZz342HX300Wm77bZLH/jAB4rWOnn0ulU7r3e9613pF7/4xSztRzurrrrqbN7xi+9+97vp9ttvT+9+97t73W4sf28NgMtbPkSH2u0JnDsqAB5LydyUAAECBAgQIECAAAECBAgQKAlMdAB85513FiFSBL/djpe+9KUpQq3HPvaxittFYLXVVkv/+c9/Zgk86womAJ6MAPjQQw9NRx555Gxh8STNy3IAnAPf8mpdAfAkVUtfCBAgQIAAAQIECBAgQIAAgVaBiQ6At9lmm3TRRRelBRdcMO2zzz7pJS95SVpooYWKMcRq1uj8t771reLnOHf33XdX4S4CnVZg1hFt0BWvM9VqOj06rQBuZ9duNfKkGU81AI7+d1v5aw/gSauw/hAgQIAAAQIECBAgQIAAgZktMLEB8N/+9re00UYbFfrf+c53ml8fby1HDODggw8uvoZ98cUXWwUsAO7rFTudgWdfN5zwk6bTQwA8WABcDo7bTZfyw+emMp167S08lbacS4AAAQIECBAgQIAAAQIECFRPYGID4J/+9Kdpl112KUTLe7S2EseewM95znPSvPPOWwTFT3va02Y5JVYKf/SjH00XXHBBeuihh4qgeIUVVki77bZbWnfdddtWLNo86qij0nHHHZfuueee4pxFFlkkbb311mn77befUshcXnX7pS99KX3ta19L999/f9HGOuusk/bdd9+09NJLz9aP6MPxxx+fvve976W//vWvxdYNuR+vf/3r03ve855izPkor6RceOGF0+GHH17slxwesfXDSSedNNs98j63ObD71Kc+lZ75zGemvfbaK11xxRXFPWOv5be97W0dxz1V3+zxy1/+Mm211VbpuuuuK8bxpje9qahJHLEn7Je//OV08803Fz/H39daa61iv9oVV1xxSq+y3L/zzjuv8Ijx7LHHHsUHClPZAzi2IQmXvA91nkfvfOc702abbTZLn8qeSyyxRArXq6++ujgn6tFt7sUcjdpF3fuZe+X5FW5f/OIX02233db1Xr32AP79739f9DnmTPQn/GOv31iFX55zcZNh9gDOfS/jxSr/uE/+8KfTXsw5sJ5vvvnSb37zmym9Jqc0gRon91oBnPcELgetg6wAjn51C2sHDYB7tTtVD+cTIECAAAECBAgQIECAAAEC1RKY2AC4vAI4OvnCF75wyrJnnnlmev/7318EmRGeLLroounhhx8uAtg4Irj7zGc+M0u7se/wFltsUWwxEUcEv/PMM0+K38cRYe2JJ56YFl988b76k0Oul73sZemMM84ogqrYxuLuu+9u9uvb3/72LCucI6h8zWtek6699tpZ+vDAAw8UgVwcyy+/fBHQ5X2Pc6gXv4/rIuh8zGMekx555JG07bbbFmFyHkPuezxYLwLJHFhG+HbuuecW/YpzylYRIkc/y8cgvtkj+nn99dcXNfnHP/5RBNo77LBDsy9l+/h7mEQNv/rVr6a11167L/v44CCC5XL9s2GMNR5UFkevh8D96Ec/KkLjOCIAnX/++WexiXt85CMfafYpe8be1GeffXbTs1y/8gPY8oXRj/j9fffdV/wqahD1y0FwWEVfynMve8a9fvaznzXnVzaLdj74wQ8WIX4+egXAEbJH0J3HmudNbMVy2mmnzXL/YQLg+AAmm+R7vfjFL06f/OQniy1dYvuXdk4xjjyGdq/hvibHFE6KvpQf/Bb/LoexcyoAbn343BSG0DVYnko7ziVAgAABAgQIECBAgAABAgSqJzCxAXBQ5iAtwpYXvehFRYj17Gc/e7ZViO3Yb7jhhvSKV7yiCN/e8IY3pA9/+MPNsDRWn0YoFkFb/P4tb3lLs4kIfy+//PIiYD366KObq3MjEN55553TJZdckp73vOelr3/9631Vu7zKsdyPCHJ33HHHYmVyBGsRvOYwd//99y/2Nl5uueWK+5RXCJ9++unFStg4DjrooLTpppsW/86BWPw7xhPjiiOv4Ix/d9oDODvHObHS9ogjjmgaxwrMHG7GytT111+/aHdQ39yHWLl56qmnFmOLcDeOSy+9tFgVHB4nn3xyc9zx95122qkIbCOcbLeaubUYcU2EiVHj1jHFSuzDDjuseUmvADjGfPvtt6ePf/zjzVXDcXHZJurypCc9qWiz7Nk6j4499tjmhw5lz+jvxhtvXNwnxhgPRst1j7n35je/ufhQItoLt3yU59eHPvSh5mrVsllYX3jhhc1regXA8XqL10de+Rr3jSA2PlhYeeWViw9A8jFMAFyet61B7wknnJD222+/4jXwk5/8pLW8xTwMq2984xvpuc997mx/n85fTHcAHH1rt1q49fetYxAAT2dVtUWAAAECBAgQIECAAAECBOojMNEBcIRYsXo1vpJePmJV7nrrrZdiVe0LXvCCtoFwhGERlMXK4XaDzKs6n/CEJ6Sf//znRfPx31iJGoFZrNZtXeV77733pg033DA9+OCDfQdPOaBrFxqXQ79yEP3a17622PYhAt78Vfjy+NutjsyhXre9kHsFwJ2+Tp/vF9sdRBAbxyC+cV3uQ7uVnbkm7WoW9vEhQKyCjUAwVuF2O3KAGPWN7URyuJ6viRA9Qts4egXAuc8xD1vbCZu//OUvxQMIX/3qVxftlT+4OOecc2abRx/72MeKbS7KcyL3N2pw1llnpdjGo3zEKtyY8/GBxiGHHNKcF7lvL3/5y4sPAcpHmMXrI44I1PP2KL0C4Ha1Kd+/HLqOKgCO18Yaa6xRjLc15P3d735XfFBQfu2O8i17kAA4+tMa2HYKffO55f92Gs+g20DYB3iUM0TbBAgQIECAAAECBAgQIEBgsgUmOgDOdLEiN1ZE/vrXv25u35D/FoHIG9/4xuIr+uVwLlZ/3nXXXcV+qnnVamspYluDCJhyOJaDuW5fK48ANL5qXw5Du5U4B3Sd+pHDuE5Bdbu22z1kq7wFRHmFaPn6XgFwbCNw6KGHznbLPOZyMDiIbzSc+1BevZxvmAP4vAI19uiN7TIGOXKfI7yLcLb1+O1vf9vcFqFXALzmmmsWoX/4RHD8lKc8pWuXcn06zaPyA9dyqBzbX8T8jlXiMQ/bHTl0L7fbzTPayHO8vJdurwA49tRtDaCjrdzH8twfVQAc98shfax+3nvvvZskeYV8p+0hBpkv3a4RAE+3qPYIECBAgAABAgQIECBAgACBOSlQiQC4DBJ7m8bX2X/4wx+m2Mqh3Z645ZWPeQ/fdqh5H9544NUrX/nK5r6jeT/SdteU95CNrQR6HTmg6xSq5VWvnb7qHish46vuERpefPHFKVaU5ofClQOwHOrF3rad+tUrAO6132r++6C+YZX70OnhXrH3cew/m4+oX2xzEatrV1999V7czb9HSBpbFuTatl6YHx4Yv+8VAMeD1SLAz0fMj2c961nF6vR2K9BzANy6vUi5D60OOUjt1N+4Nl6sBx988CzbMPTybBfQdguAn/jEJxYrptsd7ebYKAPg2GM6tl1pXembP3wob7vR98QY4MR2AXDrnsDttmewAngAbJcQIECAAAECBAgQIECAAAEC0y5QuQC4VSC+Sh97hcZK3l122aVYpVheYdmPWA7dcpjVzzXdgtZ2QV85ZCz/vVMAHOOK4PG2226brTux0jkCzHEFwIP6xkB6BZYxrqOOOip97Wtfm221dwSvn/jEJ1Jsd9Dr6CdQbReItws0417xYcOBBx6Yrr766lluHauV48ODfffdt7kCPQfA3cLcQQLgdnOll+dUA+BOH0TEoOd0ABz3zKuv8zYQeZV4617EvebDMH+PADiOvP1C60Pf2j0ELs4XAA+j7loCBAgQIECAAAECBAgQIEBgugQmNgCOfXCvuuqqWR501mnQeeuGHMr+7W9/a+6RWt77tBdafgBcv9s79Gov/t5t/9j4e7tQr/xAt1iRucoqq6R11103rbTSSsX/3v/+9xcPRBtXADyob9mj0wrgsmnsOxs+p5xySrriiiuKkD+Ofh78lVcAtz64rdz+VALgfF2sOI/V3K0r0MvbFOQAuJ97Z4d+Auu8Ari8d/B0B8D9rAAubxUyyhXAYZ63e8i+eRuMbqur+3ldTuWcrbfeughzywFwXN/p59y2AHgqys4lQIAAAQIECBAgQIAAAQIERiUwsQFwfvBYu4dbtWK0W5mYVw52W4XZ2k4Ol/pd3dtPUXJAFyta11577dkuyX3PoVo5XO3U97wX67gC4BjEIL5xXa/AspNpBK+xDcSNN944S/Dd6fxcy0576saK7Ng7Oo5eW0B0q3OsSD7++ONTeeVsDoA73TuvoI4A8ZJLLima73VNnJP3xG23B3CnQH2qK4DjPu0edhe/b/cwwFEHwPmBb4sttlg699xzi3n38MMPp1/96ldt9ynu5zU51XOGCYDjXvkBbB4CN1V55xMgQIAAAQIECBAgQIAAAQLTITCxAfAJJ5xQbO0QIVk8AC4ektbuiC0DNt9889mCwRyWlVdLlq/PIdziiy9e7K36zGc+M+U9R+Oesddu/K31iMArHi731re+Nb3nPe/pWYMceLYLA6PvG2+8cbHH7z777JO23HLL5orgaLjdthGxKna99dYrVsOOMwAexDfG1C0A3nPPPYsH7L3tbW8rAtHWo93D7zoVINdyvvnmK1bslh8QGNfkVeOtzq2BZuyHG/NwiSWWSCeddNJst2u3gjv3M/aujes73XuttdZKxxxzTNFmnu/R37POOmu2cLNc9/IHA70C9UEC4Hara2+44Yb0ile8oph35bB51AFw2OR7RL8icJ/OD2h6voAbJ/QbAHda8dsu+C3/LvrQLiRu17e86riffpfPab3fVK93PgECBAgQIECAAAECBAgQIFBdgYkNgCMcjQeCxYO84njZy15WBK5Pf/rTi5/jYXCxDcIhhxySbrrpprTgggsWYdvCCy9c/D0C3tjSIQKrWF37mc98JsUesnHEKtJYzXjrrbfO8kCt+FveOmDppZcugucVV1yxuCZWoEZIe+qppxah9I9//OP0pCc9qWflc0AXJ8aq1AiOc3s77rhjuuCCC2ZZPVreX7d8flxz+eWXFwbR7zgGDYC/853vNIPYaKdXsNrpoWGD+HYLLMuhf6yYjtWe+YhVqRHERT3jgWzrr79+T/tcy9VWW60IWnP9jz322GI+5KPbCuB44N2LXvSi4r4xZ3bddddmoBtz4vWvf30xR8urcrNntB8h7xFHHNH23uUgtfxhQMy5mHsxB+OIescWCPHf5ZdfvpiD+RhFABzzO/afjm1HWu9f3v4h/jZdAXB8wNPpzSgeanjYYYcVr/H77ruveM1vtNFGPes/XScIgKdLUjsECBAgQIAAAQIECBAgQIDAOAQmNgAOjFj1GCHnn//85642iy66aPryl788S6gZF8TqzL322qsI7yLUivMeeeSRdM899xTtxc9xTnmlb9wzHup19913F+csssgiaZ555il+zu0ccMABxTn9HDmgi+AugsIIIeeff/5mexFqffvb304rrLBCs7lygJjPf+CBB4oQOlaTvuAFLyjC73IY124bjNb+5bAu2lhooYXSoYcemp773OcOFAAP6tsrsHzTm97U3BYhjz2+8n///fcXwykHrb38o5abbrppERrGEXXOjlH7XONeW0BEGH3QQQcVbeR5lOdn/DeC2hNPPLE5j3L9cs3zNfnecU27VbbRj5jv5f72mq+9PKe6Ajj2AH7c4x5XzNUFFlggPf7xjy9eh3HEeL73ve81w+z43bABcF5BnV9rsWL/C1/4wiylLW+L0mlFd6+5MMzfBcDD6LmWAAECBAgQIECAAAECBAgQGLfARAfAGef8888vViTGCtgcBEaoFqFprMB8y1veMtvX7PO1sdo3HiQVK20jQM1BU4Q622+/fdvr4rwI/Y477rhmWBxhZKzm3HfffZsrM/spXg7oYtXt6aefXuwXG+1HexGexarivDI1txerQY866qiiD3m8EUTHWGMF8B//+Mdim4RyGNZPABwB43vf+9502223FbfKIeQgK4AH9e0VWMbYwyge9HbLLbc0Q/eo9W677dZcldqPfZwT1rGFw09+8pNmgL7BBhukT37ykynCxjh6BcBxzsUXX1xcc8011/ScR2XP2Pc5ahzmMWdjq5H4ACGvLG8dR/T3wAMPTKeddlpz7i211FLFfsXt5msvz6kGwLGXcTzgLrbjOPvss1PUI4LgmG/t7j9sABzjjw9pYkV93Cvv9dvqkvcfnsoHAP3OkV7nCYB7Cfk7AQIECBAgQIAAAQIECBAgMMkClQiAJxmwV996BXS9rvf36gn0CtSrN6Lx9zgHwPHBQKxan5OHAHhOarsXAQIECBAgQIAAAQIECBAgMN0CAuDpFm1pTwA8YuAJbF4APL1FiQfQvfzlL59lr+zpvUP31gTAc1LbvQgQIECAAAECBAgQIECAAIHpFhAAT7eoAHjEopPfvAB4+BrlbVLiv/lhie32TR7+Tr1bEAD3NnIGAQIECBAgQIAAAQIECBAgMLkCAuAR18YK4BEDT2DzAuDhi1J+OFy0Fg+gO+mkkzru9T38HTu3IAAepa62CRAgQIAAAQIECBAgQIAAgVELCIBHLCwAHjHwBDYvAB6+KFdeeWXacsstiwfDrbLKKunII49Miy+++PAND9BCpwB4rrnmSvl/0Wz53/k2rb+Ln/O55a50+n1rd+NBgoMcuf1BrnUNAQIECBAgQIAAAQIECBAgUG0BAXC166f3BAiMWCAHwJ0C33J42xq0CoBHXBzNEyBAgAABAgQIECBAgAABAj0FBMA9iZxAgECdBQTAda6+sRMgQIAAAQIECBAgQIAAgeoLCICrX0MjIEBghAIC4BHiapoAAQIECBAgQIAAAQIECBAYuYAAeOTEbkCAQJUFBMBVrp6+EyBAgAABAgQIECBAgAABAgJgc4AAAQJdNonn/gAAIABJREFUBATApgcBAgQIECBAgAABAgQIECBQZQEBcJWrp+8ECIxcQAA8cmI3IECAAAECBAgQIECAAAECBEYoIAAeIa6mCRCovoAAuPo1NAICBAgQIECAAAECBAgQIFBnAQFwnatv7AQI9BQQAPckcgIBAgQIECBAgAABAgQIECAwwQIC4Akujq4RIDB+AQHw+GugBwQIECBAgAABAgQIECBAgMDgAgLgwe1cSYBADQQEwDUosiESIECAAAECBAgQIECAAIEZLCAAnsHFNTQCBIYXEAAPb6gFAgQIECBAgAABAgQIECBAYHwCAuDx2bszAQIVEBAAV6BIukiAAAECBAgQIECAAAECBAh0FBAAmxwECBDoIiAANj0IECBAgAABAgQIECBAgACBKgsIgKtcPX0nQGDkAgLgkRO7AQECBAgQIECAAAECBAgQIDBCAQHwCHE1TYBA9QUEwNWvoREQIECAAAECBAgQIECAAIE6CwiA61x9YydAoKeAALgnkRMIECBAgAABAgQIECBAgACBCRYQAE9wcXSNAIHxCwiAx18DPSBAgAABAgQIECBAgAABAgQGFxAAD27nSgIEaiAgAK5BkQ2RAAECBAgQIECAAAECBAjMYAEB8AwurqERIDC8gAB4eEMtECBAgAABAgQIECBAgAABAuMTEACPz96dCRCogIAAuAJF0kUCBAgQIECAAAECBAgQIECgo4AA2OQgQIBAFwEBsOlBgAABAgQIECBAgAABAgQIVFlAAFzl6uk7AQIjFxAAj5zYDQgQIECAAAECBAgQIECAAIERCgwUAI+wP5omQIDARAm8/vWvT3PNNdcs/4sOln9X/rnc+XxO/l38nM9tPa/d71sh5p577oFs8n0HuthFBAgQIECAAAECBAgQIECAQKUFBMCVLp/OEyAwagEB8KiFtU+AAAECBAgQIECAAAECBAiMUkAAPEpdbRMgUHkBAXDlS2gABAgQIECAAAECBAgQIECg1gIC4FqX3+AJEOglIADuJeTvBAgQIECAAAECBAgQIECAwCQLCIAnuTr6RoDA2AUEwGMvgQ4QIECAAAECBAgQIECAAAECQwgIgIfAcykBAjNfQAA882tshAQIECBAgAABAgQIECBAYCYLCIBncnWNjQCBoQUEwEMTaoAAAQIECBAgQIAAAQIECBAYo4AAeIz4bk2AwOQLCIAnv0Z6SIAAAQIECBAgQIAAAQIECHQWEACbHQQIEOgiIAA2PQgQIECAAAECBAgQIECAAIEqCwiAq1w9fSdAYOQCAuCRE7sBAQIECBAgQIAAAQIECBAgMEIBAfAIcTVNgED1BQTA1a+hERAgQIAAAQIECBAgQIAAgToLCIDrXH1jJ0Cgp4AAuCeREwgQIECAAAECBAgQIECAAIEJFhAAT3BxdI0AgfELCIDHXwM9IECAAAECBAgQIECAAAECBAYXEAAPbudKAgRqICAArkGRDZEAAQIECBAgQIAAAQIECMxgAQHwDC6uoREgMLyAAHh4Qy0QIECAAAECBAgQIECAAAEC4xMQAI/P3p0JEKiAgAC4AkXSRQIECBAgQIAAAQIECBAgQKCjgADY5CBAgEAXAQGw6UGAAAECBAgQIECAAAECBAhUWUAAXOXq6TsBAiMXEACPnNgNCBAgQIAAAQIECBAgQIAAgREKCIBHiKtpAgSqLyAArn4NjYAAAQIECBAgQIAAAQIECNRZQABc5+obOwECPQUEwD2JnECAAAECBAgQIECAAAECBAhMsIAAeIKLo2sECIxfQAA8/hroAQECBAgQIECAAAECBAgQIDC4gAB4cDtXEiBQAwEBcA2KbIgECBAgQIAAAQIECBAgQGAGCwiAZ3BxDY0AgeEFBMDDG2qBAAECBAgQIECAAAECBAgQGJ+AAHh89u5MgEAFBATAFSiSLhIgQIAAAQIECBAgQIAAAQIdBQTAJgcBAgS6CAiATQ8CBAgQIECAAAECBAgQIECgygIC4CpXT98JEBi5gAB45MRuQIAAAQIECBAgQIAAAQIECIxQQAA8QlxNEyBQfQEBcPVraAQECBAgQIAAAQIECBAgQKDOAgLgOlff2AkQ6CkgAO5J5AQCBAgQIECAAAECBAgQIEBgggUmNgC+/PLL02abbdak+/jHP57+53/+pyvlPffck9Zcc830yCOPFOedeuqpaeWVVx6K/6lPfWpx/TXXXDNUOy4mMJ0CV111VfrUpz6Vjj766FmaXX/99dP1118/LXN/Ovtb5bYEwFWunr4TIECAAAECBAgQIECAAAEClQmA11lnnXT88cd3rdjXv/719LGPfax5jgDYBJ+JAn/+85/TJptskp785Cenn//85wLgERdZADxiYM0TIECAAAECBAgQIECAAAECIxWoRAA8zzzzFAgXXnhhWmSRRTqCbLnllumCCy4QAI90ymh83AJ5dXy7AHjcfZuJ9xcAz8SqGhMBAgQIECBAgAABAgQIEKiPQCUC4Fj9e9555xWre7fZZpu21bn55pvTi1/84rTWWms1Q2ArgOszkes0UgHwnK22AHjOersbAQIECBAgQIAAAQIECBAgML0ClQiAY//fj3zkI0W4e8IJJ7QVOPTQQ9PBBx9chMR5G4h2AfDJJ5+cjjrqqHTllVemf/3rX0VbCy64YPGV+g984ANpmWWWmaX9TnsAf+lLX0oHHnhgitXJhx12WHF9PqLd+PsxxxyT7r777uLXiy66aNp2223Tu971rvTYxz52SlW85ZZb0he/+MV0yimnNNuL+0bf3vOe96RXvepVfbeXxxMrpd/whjeka6+9Ns0333zF/sp77bVXs51vfetbxRhuvPHGWYz222+/4vzWI/ak/eAHP9h07ad/rdeEyzOe8Yx00EEHpZVWWmmWW3z6059ORx55ZHrnO9+ZFl544aLW4bziiium1VdfPX3ve99L3bYJed/73lfsi7v11lunfffdt9l22Ma4zz///PTggw8W9QyjPffcM8V+uq1HJ783velNKbYgif2nTzzxxLTGGmvMdm3szRttxj3Kq9mnUt+3v/3t6eyzz56t7bxHdbc9gOOeUb8897t5l0Pmn/70p8VciNfNfffdV/Q/9tZuV6e+J2KFThQAV6hYukqAAAECBAgQIECAAAECBAjMJlCJAPh3v/td8+Fu8e9220Bsuumm6S9/+UsRrD33uc8tBtoaAJfDswh9H//4x6eHH364CLXiWGihhdJZZ52VllhiiSZUuwD4u9/9btp9993bhr9///vf0ytf+coUoV4cEfxGYBa/jyMC5h/96Eez3KPbvLzkkkvS6173uiJYjHaivTgiWM4Pu4tQNPrTz5HHE/+97rrrivbuvffetMsuuxThdISqb3zjG9Mf/vCHornslO8XRt/4xjfSaqut1rzdSSedlHbdddfi5wiH559//llct9pqqyJ4LB85QI/fRRAZoe4DDzxQhLBx7LbbbkV/8pED4Oh3hJ3Rr8c85jGFwfe///208cYbzxas5mtjTDEnov3ynPjJT36S3vve985iW54PEaxH0Fw+uvn96U9/ahsy5+vzhxQbbLBB+upXv1r8eqr1jZA95mjUozwf8tYnnQLgqG98+FGuUdQ9fwgSHyTEByD5yAHwsssumxZYYIEUYX2ubZ4Lcf8I5TfccMN+pl5lzxEAV7Z0Ok6AAAECBAgQIECAAAECBAg0BCoRAEfgl8PbdttA5JWVeQVoDunKYd83v/nNYhVxhJMRGJZXmF588cXF1hIRELYGYa0BcA47I/yKFcCvec1rZplIEf5edtllxSrSCErziuIIhCPQjGC120rm1lkZY7rtttvSFltskT7xiU80Vw9HcBeha4wx+hIPBuvnyOMJhzPPPLPoXw4BI4jNQWEEvRF0Z6cIZt///venM844Iy211FLpl7/8ZbMvuY8R0saq4nzkoDx+joeVxZ61cUSAuf322xf//vCHP1zUNh+x8nifffYpQtl46F+0HUcOgOPfUau8yjv6FcFkfAAQK1tjtXisZi4fEfSGfawuPu2004o/xZx56UtfWtznzW9+c9FeXpkdfd15553TP/7xj9m2HenmF+OK+4RPbFnSeuQ+RvidV4wPUt9uW0C0C4DzwxFjnuyxxx6zeOdQOvoa/958882Lbud7xL/junijyCuiwzzmebwuV1111eIDjZl8CIBncnWNjQABAgQIECBAgAABAgQIzHyBygTAOXhtF57mcPBzn/tcEci2C4Df/e53p3POOafYQmCnnXaarbIRREb4WF6dGSeVA+DoQ6xMjdAw36vcUA42I1yNe5VXEsd599xzT3rRi15UBM2dtgkot/fHP/6xCOsicIuVz61bR0R7nVY7d5q6eTztVg3nfZTj2h/+8IezrPLN7eWAsRy05jYjgG3tYzyYL8Lpvffeu1jJHEcOybfbbrvi961Hrmd5S4f8uwgjY6Vt631yyNluG4j84UGE27n2Oehed91107HHHjtbH/J8aw1zu/lFI2uuuWa68847Z6tvDlRjbuRaDlrfqQbAOWTutFI8z/1yQF4OgMtuGSoC7re85S1T+vChqm+nAuCqVk6/CRAgQIAAAQIECBAgQIAAgRCoTAAcq1RXWWWVInxt3QYiQsk77rijGay1C4B7lTsHjJ0C4AhsI8zsFP5G+zlIa7d1QL7/jjvuWKyibV1p3Kt/nf4+1bHm88urPXPbOUTttqrzs5/9bDr88MPTy172snTEEUcUlz7rWc8qQu34XawwXX755TsOpxxan3vuuemJT3zibOdGYBwrZMsrm8tbQMTK5dYj2o3wtXV+lOdN+X45qI19bTttYRD7C0d7sYI4/h1HN7/4+0c/+tF03HHHFauKY8V2PnL/u82Ndmjt6juVADi2mHj1q19dNN1p+5Ry8J+NygFwefy5j7lG8XPef3jQOTzp1wmAJ71C+keAAAECBAgQIECAAAECBAh0E6hMAByDyA/yKm8DEds3xPYIm222WfrCF75QjLWfUPSmm24qtgGIPYPjIVf5wVidAuAII/Oeu63702bgCIhjL9a8V2o7+LzPbet9+pmmsWdrbEsQIV3cJ+8FG9e2e+Bduza72eQAO+/J2+76vEdubOcQWyXEccghhxT/y0eMP/YIjm0eYsVz+aFxeeVonNu6Qrp8v7xnch5Xp4C+fE2sSI32y/Mjb/1RXjleDqHzHs3txpr3ui2v9u41t/J8XHzxxYu5lY+8Cre8rUXrPfut71QC4LySuVyvdmPNIX4OxMsBcKeAt9MDEvuZy1U6RwBcpWrpKwECBAgQIECAAAECBAgQINAqUKkAOO/lWl6hmldclvdV7RTSRWD5yU9+su1+uRF6xmrRTgFwwL34xS8uwtcIgyNobA0w8/YI/UyzfgPg2P4h9sT98Y9/3HxAWm4/9zl+no4AuPyQvF5jaA0UO9mGVWzLccABBxTbNpQfGNfrHuVx9RMA5/lRDntzKFzesqIcbvbTh6kEwNFe3us3h705FG63N/Ag9R1FAJznbh6rAPi/M0MA3M+rxDkECBAgQIAAAQIECBAgQIDApApUKgCOgDb2vI1VtPmr6vFV/oceeihdeumlTeN2AXA5eIxVn89//vOLh7GtvPLKxYOsIkA+8sgjOwbA+QFnef/adnsR579N1/YOMd4IE2MFZoSnsUfrc57znKK/EUYvu+yyfa12Lk++bitY87645e0dpjpxI9D81a9+VTxoL/ZBjp/j2HrrrdO+++7bfADcVB5cF9f3EwCX50dsdxBHzI84yvsGl7c8aLe9Qbcx91oBHNfmB6vlbSDyhxSte/AOWt9RBMB5BXAOrQXA/50FAuCpvgs4nwABAgQIECBAgAABAgQIEJgkgUoFwAGXQ8rYhiHC4Fjh2brfaruQLgdcnR6Etf/++6ejjz6660Pg4v4RjMU+rrEdRA6Fc0Fz3/pd3dtrIkQofeCBB6aFFlqoCE5bVxxHgBihcBzTsQI436/XdgG9+l3+e2zHEHsL5zbL4Wu/fY72+gmAy/Mj7hsh80c+8pFZtgfJfcvzod3D/LqNr58AOI8xbwORt3+IVdLhkI9B6zuVALgc5HbaAzi2QokVwHG02wPYFhCvT3PNNdcs/wur8u/KP5fnTz4n/y5+zue2ntfu961zce65557Ky695br7vQBe7iAABAgQIECBAgAABAgQIEKi0QOUC4AhCY2/ZWAW7+uqrp29961updV/V1pCuHIK1Cx0jSF133XXTbbfd1jMAjmrnsLg1mM1bEHTaIiKujaDtzjvvTLHdws4779x18uQtGToFyvmhbdFIv2FqtwCzHAR22qs2+hTbX2y00UbFvr+nn356EbIuueSS6bTTTpttPO32oM1bJLQG9/niuCYC/mjzZz/7WZp//vn7DoDzdguxQjvXobw9SL5H3k+63UruOCfPmQjdjz322OIBhHH0EwDHeXnriQ996EPpM5/5TBHUt/oMWt+pBMDRlxxAd/rwI+/9XA7+rQD+71S2ArjS/zdO5wkQIECAAAECBAgQIECAQO0FKhcAR8Xy6s0IBhdccMEikCwfrSFdBLwR4MWq3XhgXARy+bjhhhvSTjvtlP7whz8Uv+q0B3B5FWQ5MG7dLiGC0Th3mWWWScccc0xaaaWVinZjK4Q999wznXzyyUUwGcFmeTVou5mYV73GOOO6PK64/4knnljsDZwfTDcdAXD0Yccdd0xnnHFGseo4At68MjTuGUHqwQcfXHQ1PywsHqgW2yxEP7bbbru0++67F9tV5DHHthjhEaum87WnnHJKYR5HhJK77rpr85rf/va3aYcddigedle+pt8VwNFmBJ75IXKPf/zjZ9keJDuXV3JHDT//+c83H1YXcyIe6HfLLbcUHzT86Ec/apan3wA4P3wu79Pc7sGBg9a3HM7Gwwuzd3Qy7+Vbng/5g4KYd3vssUfx4UM+8nYV8XP8e/PNNy/+JAD+7ytSANzu3cnvCBAgQIAAAQIECBAgQIAAgaoIVDIAzisWAznvLVsGbxfS5bAtzovAbOGFF04PP/xwuu+++4pA9qUvfWkRfMa1Z555ZrO53Fbr1+DzSuQ4MYeh8e8IHiNQvOuuu4o2Yr/haP/uu+8uQtL4d2zrEA9G63VEWxtuuGERhrZrK8Ll2P84Vu6Ww7tu7fYKMCPojdD2qquuKpqJgD1C1Hvvvbd4SF4crXscxySKh+vFEeOLMWeL+G+E4RGilrew+OxnP5sOP/zw4rzWesTvYmxxTQ43pxIAl2vdbn5kn7zSONcl+h3/jlrFsdhiixVzotzvXn657fKHDmFy4YUXpkUWWWSW0gxa33Lb8803X7FCOuZstN8uAI6b5u1J4t/5mm41FQD/t1QC4G7vKP5GgAABAgQIECBAgAABAgQITLpAJQPgWPEbX7GPo93K104hXWwX8YUvfKFY2RlHhJubbLJJ+sAHPlCEYrGncBzlvVo7BcBxXnm1bAR85ZWvARsrgHOYGO3Hg+cOOOCAIhDt94i+7rXXXsWD1SL4izAx+hQhbKyQzWH4ZpttVoyt19FPgJlXGMeK3xtvvLFoMj+E7qCDDmquai7fK8a/3377pauvvrr54LcIVLfddtv0rne9a5ZVqvm6yy67rFgVHatYc7i83HLLFefH9hDlYyoBcHkri1gpvcYaa3RkidW+8ZC2888/v69+9+OXb5a3mYgVybGlRrtj0PrGdiOxqjg+wIgjb9nRKQDO8zr2PM7eUdOY81G3vFI991EA/N9qCYB7vav4OwECBAgQIECAAAECBAgQIDDJAhMbAE8ymr4RIFAfAQFwfWptpAQIECBAgAABAgQIECBAYCYKCIBnYlWNiQCBaRMQAE8bpYYIECBAgAABAgQIECBAgACBMQgIgMeA7pYECFRHQABcnVrpKQECBAgQIECAAAECBAgQIDC7gADYrCBAgEAXAQGw6UGAAAECBAgQIECAAAECBAhUWUAAXOXq6TsBAiMXEACPnNgNCBAgQIAAAQIECBAgQIAAgREKCIBHiKtpAgSqLyAArn4NjYAAAQIECBAgQIAAAQIECNRZQABc5+obOwECPQUEwD2JnECAAAECBAgQIECAAAECBAhMsIAAeIKLo2sECIxfQAA8/hroAQECBAgQIECAAAECBAgQIDC4gAB4cDtXEiBQAwEBcA2KbIgECBAgQIAAAQIECBAgQGAGCwiAZ3BxDY0AgeEFBMDDG2qBAAECBAgQIECAAAECBAgQGJ+AAHh89u5MgEAFBATAFSiSLhIgQIAAAQIECBAgQIAAAQIdBQTAJgcBAgS6CAiATQ8CBAgQIECAAAECBAgQIECgygIC4CpXT98JEBi5gAB45MRuQIAAAQIECBAgQIAAAQIECIxQQAA8QlxNEyBQfQEBcPVraAQECBAgQIAAAQIECBAgQKDOAgLgOlff2AkQ6CkgAO5J5AQCBAgQIECAAAECBAgQIEBgggUEwBNcHF0jQGD8AgLg8ddADwgQIECAAAECBAgQIECAAIHBBQTAg9u5kgCBGggIgGtQZEMkQIAAAQIECBAgQIAAAQIzWEAAPIOLa2gECAwvIAAe3lALBAgQIECAAAECBAgQIECAwPgEBMDjs3dnAgQqICAArkCRdJEAAQIECBAgQIAAAQIECBDoKCAANjkIECDQRUAAbHoQIECAAAECBAgQIECAAAECVRYQAFe5evpOgMDIBQTAIyd2AwIECBAgQIAAAQIECBAgQGCEAgLgEeJqmgCB6gsIgKtfQyMgQIAAAQIECBAgQIAAAQJ1FhAA17n6xk6AQE8BAXBPIicQIECAAAECBAgQIECAAAECEywgAJ7g4ugaAQLjFxAAj78GekCAAAECBAgQIECAAAECBAgMLiAAHtzOlQQI1EBAAFyDIhsiAQIECBAgQIAAAQIECBCYwQIC4BlcXEMjQGB4AQHw8IZaIECAAAECBAgQIECAAAECBMYnIAAen707EyBQAQEBcAWKpIsECBAgQIAAAQIECBAgQIBARwEBsMlBgACBLgICYNODAAECBAgQIECAAAECBAgQqLKAALjK1dN3AgRGLiAAHjmxGxAgQIAAAQIECBAgQIAAAQIjFBAAjxBX0wQIVF9AAFz9GhoBAQIECBAgQIAAAQIECBCos4AAuM7VN3YCBHoKCIB7EjmBAAECBAgQIECAAAECBAgQmGABAfAEF0fXCBAYv4AAePw10AMCBAgQIECAAAECBAgQIEBgcAEB8OB2riRAoAYCAuAaFNkQCRAgQIAAAQIECBAgQIDADBYQAM/g4hoaAQLDCwiAhzfUAgECBAgQIECAAAECBAgQIDA+AQHw+OzdmQCBCggIgCtQJF0kQIAAAQIECBAgQIAAAQIEOgoIgE0OAgQIdBEQAJseBAgQIECAAAECBAgQIECAQJUFBMBVrp6+EyAwcgEB8MiJ3YAAAQIECBAgQIAAAQIECBAYoYAAeIS4miZAoPoCAuDq19AICBAgQIAAAQIECBAgQIBAnQUEwHWuvrETINBTQADck8gJBAgQIECAAAECBAgQIECAwAQLCIAnuDi6RoDA+AUEwOOvgR4QIECAAAECBAgQIECAAAECgwsIgAe3cyUBAjUQEADXoMiGSIAAAQIECBAgQIAAAQIEZrCAAHgGF9fQCBAYXkAAPLyhFggQIECAAAECBAgQIECAAIHxCQiAx2fvzgQIVEBAAFyBIukiAQIECBAgQIAAAQIECBAg0FFAAGxyECBAoIuAANj0IECAAAECBAgQIECAAAECBKosIACucvX0nQCBkQsIgEdO7AYECBAgQIAAAQIECBAgQIDACAUEwCPE1TQBAtUXEABXv4ZGQIAAAQIECBAgQIAAAQIE6iwgAK5z9Y2dAIGeAgLgnkROIECAAAECBAgQIECAAAECBCZYQAA8wcXRNQIExi8gAB5/DfSAAAECBAgQIECAAAECBAgQGFxAADy4nSsJEKiBgAC4BkU2RAIECBAgQIAAAQIECBAgMIMFBMAzuLiGRoDA8AIC4OENtUCAAAECBAgQIECAAAECBAiMT0AAPD57dyZAoAICAuAKFEkXCRAgQIAAAQIECBAgQIAAgY4CAmCTgwABAl0EBMCmBwECBAgQIECAAAECBAgQIFBlAQFwlaun7wQIjFxAADxyYjcgQIAAAQIECBAgQIAAAQIERiggAB4hrqYJEKi+gAC4+jU0AgIECBAgQIAAAQIECBAgUGcBAXCdq2/sBAj0FBAA9yRyAgECBAgQIECAAAECBAgQIDDBAgLgCS6OrhEgMH4BAfD4a6AHBAgQIECAAAECBAgQIECAwOACAuDB7VxJgEANBATANSiyIRIgQIAAAQIECBAgQIAAgRksIACewcU1NAIEhhcQAA9vqAUCBAgQIECAAAECBAgQIEBgfAIC4PHZuzMBAhUQEABXoEi6SIAAAQIECBAgQIAAAQIECHQUEACbHAQIEOgiIAA2PQgQIECAAAECBAgQIECAAIEqCwiAq1w9fSdAYOQCAuCRE7sBAQIECBAgQIAAAQIECBAgMEIBAfAIcTVNgED1BQTA1a+hERAgQIAAAQIECBAgQIAAgToLCIDrXH1jJ0Cgp4AAuCeREwgQIECAAAECBAgQIECAAIEJFhAAT3BxdI0AgfELCIDHXwM9IECAAAECBAgQIECAAAECBAYXEAAPbudKAgRqICAArkGRDZEAAQIECBAgQIAAAQIECMxgAQHwDC6uoREgMLyAAHh4Qy0QIECAAAECBAgQIECAAAEC4xMQAI/P3p0JEKiAgAC4AkXSRQIECBAgQIAAAQIECBAgQKCjgADY5CBAgEAXAQGw6UGAAAECBAgQIECAAAECBAhUWUAAXOXq6TsBAiMXEACPnNgNCBAgQIAAAQIECBAgQIAAgREKCIBHiKtpAgSqLyAArn4NjYAAAQIECBAgQIAAAQIECNRZQAD8pNmYAAAgAElEQVRc5+obOwECPQUEwD2JnECAAAECBAgQIECAAAECBAhMsIAAeIKLo2sECIxfQAA8/hroAQECBAgQIECAAAECBAgQIDC4gAB4cDtXEiBQAwEBcA2KbIgECBAgQIAAAQIECBAgQGAGCwiAZ3BxDY0AgeEFBMDDG2qBAAECBAgQIECAAAECBAgQGJ+AAHh89u5MgEAFBATAFSiSLhIgQIAAAQIECBAgQIAAAQIdBQTAJgcBAgS6CAiATQ8CBAgQIECAAAECBAgQIECgygIC4CpXT98JEBi5gAB45MRuQIAAAQIECBAgQIAAAQIECIxQQAA8QlxNEyBQfQEBcPVraAQECBAgQIAAAQIECBAgQKDOAgLgOlff2AkQ6CkgAO5J5AQCBAgQIECAAAECBAgQIEBgggUEwBNcHF0jQGD8AgLg8ddADwgQIECAAAECBAgQIECAAIHBBQTAg9u5kgCBGggIgGtQZEMkQIAAAQIECBAgQIAAAQIzWEAAPIOLa2gECAwvIAAe3lALBAgQIECAAAECBAgQIECAwPgEBMDjs3dnAgQqICAArkCRdJEAAQIECBAgQIAAAQIECBDoKCAANjkIECDQRUAAbHoQIECAAAECBAgQIECAAAECVRYQAFe5evpOgMDIBQTAIyd2AwIECBAgQIAAAQIECBAgQGCEAgLgEeJqmgCB6gsIgKtfQyMgQIAAAQIECBAgQIAAAQJ1FhAA17n6xk6AQE8BAXBPIicQIECAAAECBAgQIECAAAECEywgAJ7g4ugaAQLjFxAAj78GekCAAAECBAgQIECAAAECBAgMLiAAHtzOlQQI1EBAAFyDIhsiAQIECBAgQIAAAQIECBCYwQIC4BlcXEMjQGB4AQHw8IZaIECAAAECBAgQIECAAAECBMYnIAAen707EyBQAQEBcAWKpIsECBAgQIAAAQIECBAgQIBARwEBsMlBgACBLgICYNODAAECBAgQIECAAAECBAgQqLKAALjK1dN3AgRGLiAAHjmxGxAgQIAAAQIECBAgQIAAAQIjFBAAjxBX0wQIVF9AAFz9GhoBAQIECBAgQIAAAQIECBCos4AAuM7VN3YCBHoKCIB7EjmBAAECBAgQIECAAAECBAgQmGABAfAEF0fXCBAYv4AAePw10AMCBAgQIECAAAECBAgQIEBgcAEB8OB2riRAoAYCAuAaFNkQCRAgQIAAAQIECBAgQIDADBYQAM/g4hoaAQLDCwiAhzfUAgECBAgQIECAAAECBAgQIDA+AQHw+OzdmQCBCggIgCtQJF0kQIAAAQIECBAgQIAAAQIEOgoIgE0OAgQIdBEQAJseBAgQIECAAAECBAgQIECAQJUFBMBVrp6+EyAwcgEB8MiJ3YAAAQIECBAgQIAAAQIECBAYoYAAeIS4miZAoPoCAuDq19AICBAgQIAAAQIECBAgQIBAnQUEwHWuvrETINBTQADck8gJBAgQIECAAAECBAgQIECAwAQLCIAnuDi6RoDA+AUEwOOvgR4QIECAAAECBAgQIECAAAECgwsIgAe3cyUBAjUQEADXoMiGSIAAAQIECBAgQIAAAQIEZrCAAHgGF9fQCBAYXkAAPLyhFggQIECAAAECBAgQIECAAIHxCQiAx2fvzgQIVEBAAFyBIukiAQIECBAgQIAAAQIECBAg0FFAAGxyECBAoIuAANj0IECAAAECBAgQIECAAAECBKosIACucvX0nQCBkQsIgEdO7AYECBAgQIAAAQIECBAgQIDACAUEwCPE1TQBAtUXEABXv4ZGQIAAAQIECBAgQIAAAQIE6iwgAK5z9Y2dAIGeAgLgnkROIECAAAECBAgQIECAAAECBCZYQAA8wcXRNQIExi8gAB5/DfSAAAECBAgQIECAAAECBAgQGFxAADy4nSsJEKiBgAC4BkU2RAIECBAgQIAAAQIECBAgMIMFBMAzuLiGRoDA8AIC4OENtUCAAAECBAgQIECAAAECBAiMT0AAPD57dyZAoAICAuAKFEkXCRAgQIAAAQIECBAgQIAAgY4CAmCTgwABAl0EBMCmBwECBAgQIECAAAECBAgQIFBlAQFwlaun7wQIjFxAADxyYjcgQIAAAQIECBAgQIAAAQIERiggAB4hrqYJEKi+gAC4+jU0AgIECBAgQIAAAQIECBAgUGcBAXCdq2/sBAj0FBAA9yRyAgECBAgQIECAAAECBAgQIDDBAgLgCS6OrhEgMH4BAfD4a6AHBAgQIECAAAECBAgQIECAwOACAuDB7VxJgEANBATANSiyIRIgQIAAAQIECBAgQIAAgRksIACewcU1NAIEhhcQAA9vqAUCBAgQIECAAAECBAgQIEBgfAIC4PHZuzMBAhUQEABXoEi6SIAAAQIECBAgQIAAAQIECHQUEACbHAQIEOgiIAA2PQgQIECAAAECBAgQIECAAIEqCwiAq1w9fSdAYOQCAuCRE7sBAQIECBAgQIAAAQIECBAgMEIBAfAIcTVNgED1BQTA1a+hERAgQIAAAQIECBAgQIAAgToLCIDrXH1jJ0Cgp4AAuCeREwgQIECAAAECBAgQIECAAIEJFhAAT3BxdI0AgfELCIDHXwM9IECAAAECBAgQIECAAAECBAYXEAAPbudKAgRqICAArkGRDZEAAQIECBAgQIAAAQIECMxgAQHwDC6uoREgMLyAAHh4Qy0QIECAAAECBAgQIECAAAEC4xMQAI/P3p0JEKiAgAC4AkXSRQIECBAgQIAAAQIECBAgQKCjgADY5CBAgEAXAQGw6UGAAAECBAgQIECAAAECBAhUWUAAXOXq6TsBAiMXEACPnNgNCBAgQIAAAQIECBAgQIAAgREKCIBHiKtpAgSqLyAArn4NjYAAAQIECBAgQIAAAQIECNRZQABc5+obOwECPQUEwD2JnECAAAECBAgQIECAAAECBAhMsIAAeIKLo2sECIxfQAA8/hroAQECBAgQIECAAAECBAgQIDC4gAB4cDtXEiBQAwEBcA2KbIgECBAgQIAAAQIECBAgQGAGCwiAZ3BxDY0AgeEFBMDDG2qBAAECBAgQIECAAAECBAgQGJ+AAHh89u5MgEAFBATAFSiSLhIgQIAAAQIECBAgQIAAAQIdBQTAJgcBAgS6CAiATQ8CBAgQIECAAAECBAgQIEDg/7d3hyuS3MgCRnfmGW2//5us3QNlmnJlqkbq6FAozsKFi52plE7o10fRriwgAFeenr0TIBAuIACHE/sAAQIECBAgQIAAAQIECBAgECggAAfiWpoAgfoCAnD9GToBAQIECBAgQIAAAQIECBDoLCAAd56+sxMgMBQQgIdEHiBAgAABAgQIECBAgAABAgQ2FhCANx6OrREgkC8gAOfPwA4IECBAgAABAgQIECBAgACBeQEBeN7OmwQINBAQgBsM2REJECBAgAABAgQIECBAgMDBAgLwwcN1NAIE1gUE4HVDKxAgQIAAAQIECBAgQIAAAQJ5AgJwnr0vEyBQQEAALjAkWyRAgAABAgQIECBAgAABAgQuBQRgl4MAAQI3AgKw60GAAAECBAgQIECAAAECBAhUFhCAK0/P3gkQCBcQgMOJfYAAAQIECBAgQIAAAQIECBAIFBCAA3EtTYBAfQEBuP4MnYAAAQIECBAgQIAAAQIECHQWEIA7T9/ZCRAYCgjAQyIPECBAgAABAgQIECBAgAABAhsLCMAbD8fWCBDIFxCA82dgBwQIECBAgAABAgQIECBAgMC8gAA8b+dNAgQaCAjADYbsiAQIECBAgAABAgQIECBA4GABAfjg4ToaAQLrAgLwuqEVCBAgQIAAAQIECBAgQIAAgTwBATjP3pcJECggIAAXGJItEiBAgAABAgQIECBAgAABApcCArDLQYAAgRsBAdj1IECAAAECBAgQIECAAAECBCoLCMCVp2fvBAiECwjA4cQ+QIAAAQIECBAgQIAAAQIECAQKCMCBuJYmQKC+gABcf4ZOQIAAAQIECBAgQIAAAQIEOgsIwJ2n7+wECAwFBOAhkQcIECBAgAABAgQIECBAgACBjQUE4I2HY2sECOQLCMD5M7ADAgQIECBAgAABAgQIECBAYF5AAJ638yYBAg0EBOAGQ3ZEAgQIECBAgAABAgQIECBwsIAAfPBwHY0AgXUBAXjd0AoECBAgQIAAAQIECBAgQIBAnoAAnGfvywQIFBAQgAsMyRYJECBAgAABAgQIECBAgACBSwEB2OUgQIDAjYAA7HoQIECAAAECBAgQIECAAAEClQUE4MrTs3cCBMIFBOBwYh8gQIAAAQIECBAgQIAAAQIEAgUE4EBcSxMgUF9AAK4/QycgQIAAAQIECBAgQIAAAQKdBQTgztN3dgIEhgIC8JDIAwQIECBAgAABAgQIECBAgMDGAgLwxsOxNQIE8gUE4PwZ2AEBAgQIECBAgAABAgQIECAwLyAAz9t5kwCBBgICcIMhOyIBAgQIECBAgAABAgQIEDhYQAA+eLiORoDAuoAAvG5oBQIECBAgQIAAAQIECBAgQCBPQADOs/dlAgQKCAjABYZkiwQIECBAgAABAgQIECBAgMClgADschAgQOBGQAB2PQgQIECAAAECBAgQIECAAIHKAgJw5enZOwEC4QICcDixDxAgQIAAAQIECBAgQIAAAQKBAgJwIK6lCRCoLyAA15+hExAgQIAAAQIECBAgQIAAgc4CAnDn6Ts7AQJDAQF4SOQBAgQIECBAgAABAgQIECBAYGMBAXjj4dgaAQL5AgJw/gzsgAABAgQIECBAgAABAgQIEJgXEIDn7bxJgEADAQG4wZAdkQABAgQIECBAgAABAgQIHCwgAB88XEcjQGBdQABeN7QCAQIECBAgQIAAAQIECBAgkCcgAOfZ+zIBAgUEBOACQ7JFAgQIECBAgAABAgQIECBA4FJAAHY5CBAgcCMgALseBAgQIECAAAECBAgQIECAQGUBAbjy9OydAIFwAQE4nNgHCBAgQIAAAQIECBAgQIAAgUABATgQ19IECNQXEIDrz9AJCBAgQIAAAQIECBAgQIBAZwEBuPP0nZ0AgaGAADwk8gABAgQIECBAgAABAgQIECCwsYAAvPFwbI0AgXwBATh/BnZAgAABAgQIECBAgAABAgQIzAsIwPN23iRAoIGAANxgyI5IgAABAgQIECBAgAABAgQOFhCADx6uoxEgsC4gAK8bWoEAAQIECBAgQIAAAQIECBDIExCA8+x9mQCBAgICcIEh2SIBAgQIECBAgAABAgQIECBwKSAAuxwECBC4ERCAXQ8CBAgQIECAAAECBAgQIECgsoAAXHl69k6AQLiAABxO7AMECBAgQIAAAQIECBAgQIBAoIAAHIhraQIE6gsIwPVn6AQECBAgQIAAAQIECBAgQKCzgADcefrOToDAUEAAHhJ5gAABAgQIECBAgAABAgQIENhYQADeeDi2RoBAvoAAnD8DOyBAgAABAgQIECBAgAABAgTmBQTgeTtvEiDQQEAAbjBkRyRAgAABAgQIECBAgAABAgcLCMAHD9fRCBBYFxCA1w2tQIAAAQIECBAgQIAAAQIECOQJCMB59r5MgEABAQG4wJBskQABAgQIECBAgAABAgQIELgUEIBdDgIECNwICMCuBwECBAgQIECAAAECBAgQIFBZQACuPD17J0AgXEAADif2AQIECBAgQIAAAQIECBAgQCBQQAAOxLU0AQL1BQTg+jN0AgIECBAgQIAAAQIECBAg0FlAAO48fWcnQGAoIAAPiTxAgAABAgQIECBAgAABAgQIbCwgAG88HFsjQCBfQADOn4EdECBAgAABAgQIECBAgAABAvMCAvC8nTcJEGggIAA3GLIjEiBAgAABAgQIECBAgACBgwUE4IOH62gECKwLCMDrhlYgQIAAAQIECBAgQIAAAQIE8gQE4Dx7XyZAoICAAFxgSLZIgAABAgQIECBAgAABAgQIXAoIwC4HAQIEbgQEYNeDAAECBAgQIECAAAECBAgQqCwgAFeenr0TIBAuIACHE/sAAQIECBAgQIAAAQIECBAgECggAAfiWpoAgfoCAnD9GToBAQIECBAgQIAAAQIECBDoLCAAd56+sxMgMBQQgIdEHiBAgAABAgQIECBAgAABAgQ2FhCANx6OrREgkC8gAOfPwA4IECBAgAABAgQIECBAgACBeQEBeN7OmwQINBAQgBsM2REJECBAgAABAgQIECBAgMDBAgLwwcN1NAIE1gUE4HVDKxAgQIAAAQIECBAgQIAAAQJ5AgJwnr0vEyBQQEAALjAkWyRAgAABAgQIECBAgAABAgQuBQRgl4MAAQI3AgKw60GAAAECBAgQIECAAAECBAhUFhCAK0/P3gkQCBcQgMOJfYAAAQIECBAgQIAAAQIECBAIFBCAA3EtTYBAfQEBuP4MnYAAAQIECBAgQIAAAQIECHQWEIA7T9/ZCRAYCgjAQyIPECBAgAABAgQIECBAgAABAhsLCMAbD8fWCBDIFxCA82dgBwQIECBAgAABAgQIECBAgMC8gAA8b+dNAgQaCAjADYbsiAQIECBAgAABAgQIECBA4GABAfjg4ToaAQLrAgLwuqEVCBAgQIAAAQIECBAgQIAAgTwBATjP3pcJECggIAAXGJItEiBAgAABAgQIECBAgAABApcCArDLQYAAgRsBAdj1IECAAAECBAgQIECAAAECBCoLCMCVp2fvBAiECwjA4cQ+QIAAAQIECBAgQIAAAQIECAQKCMCBuJYmQKC+gABcf4ZOQIAAAQIECBAgQIAAAQIEOgsIwJ2n7+wECAwFBOAhkQcIECBAgAABAgQIECBAgACBjQUE4I2HY2sECOQLCMD5M7ADAgQIECBAgAABAgQIECBAYF5AAJ638yYBAg0EBOAGQ3ZEAgQIECBAgAABAgQIECBwsIAAfPBwHY0AgXUBAXjd0AoECBAgQIAAAQIECBAgQIBAnoAAnGfvywQIFBAQgAsMyRYJECBAgAABAgQIECBAgACBSwEB2OUgQIDAjYAA7HoQIECAAAECBAgQIECAAAEClQUE4MrTs3cCBMIFBOBwYh8gQIAAAQIECBAgQIAAAQIEAgUE4EBcSxMgUF9AAK4/QycgQIAAAQIECBAgQIAAAQKdBQTgztN3dgIEhgIC8JDIAwQIECBAgAABAgQIECBAgMDGAgLwxsOxNQIE8gUE4PwZ2AEBAgQIECBAgAABAgQIECAwLyAAz9t5kwCBBgICcIMhOyIBAgQIECBAgAABAgQIEDhYQAA+eLiORoDAuoAAvG5oBQIECBAgQIAAAQIECBAgQCBPQADOs/dlAgQKCAjABYZkiwQIECBAgAABAgQIECBAgMClgADschAgQOBGQAB2PQgQIECAAAECBAgQIECAAIHKAgJw5enZOwEC4QICcDixDxAgQIAAAQIECBAgQIAAAQKBAgJwIK6lCRCoLyAA15+hExAgQIAAAQIECBAgQIAAgc4CAnDn6Ts7AQJDAQF4SOQBAgQIECBAgAABAgQIECBAYGMBAXjj4dgaAQL5AgJw/gzsgAABAgQIECBAgAABAgQIEJgXEIDn7bxJgEADAQG4wZAdkQABAgQIECBAgAABAgQIHCwgAB88XEcjQGBdQABeN7QCAQIECBAgQIAAAQIECBAgkCcgAOfZ+zIBAgUEBOACQ7JFAgQIECBAgAABAgQIECBA4FJAAHY5CBAgcCMgALseBAgQIECAAAECBAgQIECAQGUBAbjy9OydAIFwAQE4nNgHCBAgQIAAAQIECBAgQIAAgUABATgQ19IECNQXEIDrz9AJCBAgQIAAAQIECBAgQIBAZwEBuPP0nZ0AgaGAADwk8gABAgQIECBAgAABAgQIECCwsYAAvPFwbI0AgXwBATh/BnZAgAABAgQIECBAgAABAgQIzAsIwPN23iRAoIGAANxgyI5IgAABAgQIECBAgAABAgQOFhCADx6uoxEgsC4gAK8bWoEAAQIECBAgQIAAAQIECBDIExCA8+x9mQCBAgICcIEh2SIBAgQIECBAgAABAgQIECBwKSAAuxwECBC4ERCAXQ8CBAgQIECAAAECBAgQIECgsoAAXHl69k6AQLiAABxO7AMECBAgQIAAAQIECBAgQIBAoIAAHIhraQIE6gsIwPVn6AQECBAgQIAAAQIECBAgQKCzgADcefrOToDAUEAAHhJ5gAABAgQIECBAgAABAgQIENhYQADeeDi2RoBAvoAAnD8DOyBAgAABAgQIECBAgAABAgTmBQTgeTtvEiDQQEAAbjBkRyRAgAABAgQIECBAgAABAgcLCMAHD9fRCBBYFxCA1w2tQIAAAQIECBAgQIAAAQIECOQJCMB59r5MgEABAQG4wJBskQABAgQIECBAgAABAgQIELgUEIBdDgIECNwICMCuBwECBAgQIECAAAECBAgQIFBZQACuPD17J0AgXEAADif2AQIECBAgQIAAAQIECBAgQCBQQAAOxLU0AQL1BQTg+jN0AgIECBAgQIAAAQIECBAg0FlAAO48fWcnQGAoIAAPiTxAgAABAgQIECBAgAABAgQIbCwgAG88HFsjQCBfQADOn4EdECBAgAABAgQIECBAgAABAvMCAvC8nTcJEGggIAA3GLIjEiBAgAABAgQIECBAgACBgwUE4IOH62gECKwLCMDrhlYgQIAAAQIECBAgQIAAAQIE8gQE4Dx7XyZAoICAAFxgSLZIgAABAgQIECBAgAABAgQIXAoIwC4HAQIEbgQEYNeDAAECBAgQIECAAAECBAgQqCwgAFeenr0TIBAuIACHE/sAAQIECBAgQIAAAQIECBAgECggAAfiWpoAgfoCAnD9GToBAQIECBAgQIAAAQIECBDoLCAAd56+sxMgMBQQgIdEHiBAgAABAgQIECBAgAABAgQ2FhCANx6OrREgkC8gAOfPwA4IECBAgAABAgQIECBAgACBeQEBeN7OmwQINBAQgBsM2REJECBAgAABAgQIECBAgMDBAgLwwcN1NAIE1gUE4HVDKxAgQIAAAQIECBAgQIAAAQJ5AgJwnr0vEyBQQEAALjAkWyRAgAABAgQIECBAgAABAgQuBQRgl4MAAQI3AgKw60GAAAECBAgQIECAAAECBAhUFhCAK0/P3gkQCBcQgMOJfYAAAQIECBAgQIAAAQIECBAIFBCAA3EtTYBAfQEBuP4MnYAAAQIECBAgQIAAAQIECHQWEIA7T9/ZCRAYCgjAQyIPECBAgAABAgQIECBAgAABAhsLCMAbD8fWCBDIFxCA82dgBwQIECBAgAABAgQIECBAgMC8gAA8b+dNAgQaCAjADYbsiAQIECBAgAABAgQIECBA4GABAfjg4ToaAQLrAgLwuqEVCBAgQIAAAQIECBAgQIAAgTwBATjP3pcJECggIAAXGJItEiBAgAABAgQIECBAgAABApcCArDLQYAAgRsBAdj1IECAAAECBAgQIECAAAECBCoLCMCVp2fvBAiECwjA4cQ+QIAAAQIECBAgQIAAAQIECAQKCMCBuJYmQKC+gABcf4ZOQIAAAQIECBAgQIAAAQIEOgsIwJ2n7+wECAwFBOAhkQcIECBAgAABAgQIECBAgACBjQUE4I2HY2sECOQLCMD5M7ADAgQIECBAgAABAgQIECBAYF5AAJ638yYBAg0EBOAGQ3ZEAgQIECBAgAABAgQIECBwsIAAfPBwHY0AgXUBAXjd0AoECBAgQIAAAQIECBAgQIBAnoAAnGfvywQIFBAQgAsMyRYJECBAgAABAgQIECBAgACBSwEB2OUgQIDAjYAA7HoQIECAAAECBAgQIECAAAEClQUE4MrTs3cCBMIFBOBwYh8gQIAAAQIECBAgQIAAAQIEAgUE4EBcSxMgUF9AAK4/QycgQIAAAQIECBAgQIAAAQKdBQTgztN3dgIEhgIC8JDIAwQIECBAgAABAgQIECBAgMDGAgLwxsOxNQIE8gUE4PwZ2AEBAgQIECBAgAABAgQIECAwLyAAz9t5kwCBBgICcIMhOyIBAgQIECBAgAABAgQIEDhYQAA+eLiORoDAuoAAvG5oBQIECBAgQIAAAQIECBAgQCBPQADOs/dlAgQKCAjABYZkiwQIECBAgAABAgQIECBAgMClgADschAgQOBGQAB2PQgQIECAAAECBAgQIECAAIHKAgJw5enZOwEC4QICcDixDxAgQIAAAQIECBAgQIAAAQKBAgJwIK6lCRCoLyAA15+hExAgQIAAAQIECBAgQIAAgc4CAnDn6Ts7AQJDAQF4SOQBAgQIECBAgAABAgQIECBAYGMBAXjj4dgaAQL5AgJw/gzsgAABAgQIECBAgAABAgQIEJgXEIDn7bxJgEADAQG4wZAdkQABAgQIECBAgAABAgQIHCwgAB88XEcjQGBdQABeN7QCAQIECBAgQIAAAQIECBAgkCcgAOfZ+zIBAgUEBOACQ7JFAgQIECBAgAABAgQIECBA4FJAAHY5CBAgcCMgALseBAgQIECAAAECBAgQIECAQGUBAbjy9OydAIFwAQE4nNgHCBAgQIAAAQIECBAgQIAAgUABATgQ19IECNQXEIDrz9AJCBAgQIAAAQIECBAgQIBAZwEBuPP0nZ0AgaGAADwk8gABAgQIECBAgAABAgQIECCwsYAAvPFwbI0AgXwBATh/BnZAgAABAgQIECBAgAABAgQIzAsIwPN23iRAoIGAANxgyI5IgAABAgQIECBAgAABAgQOFhCADx6uoxEgsC4gAK8bWoEAAQIECBAgQIAAAQIECBDIExCA8+x9mQCBAgICcIEh2SIBAgQIECBAgAABAgQIECBwKSAAuxwECBC4ERCAXQ8CBAgQIECAAAECBAgQIECgsoAAXHl69k6AQLiAABxO7AMECBAgQIAAAQIECBAgQIBAoIAAHIhraQIE6gsIwPVn6AQECBAgQIAAAQIECBAgQKCzgADcefNN1gUAABT/SURBVPrOToDAUEAAHhJ5gAABAgQIECBAgAABAgQIENhYQADeeDi2RoBAvoAAnD8DOyBAgAABAgQIECBAgAABAgTmBQTgeTtvEiDQQEAAbjBkRyRAgAABAgQIECBAgAABAgcLCMAHD9fRCBBYFxCA1w2tQIAAAQIECBAgQIAAAQIECOQJCMB59r5MgEABAQG4wJBskQABAgQIECBAgAABAgQIELgUEIBdDgIECNwICMCuBwECBAgQIECAAAECBAgQIFBZQACuPD17J0AgXEAADif2AQIECBAgQIAAAQIECBAgQCBQQAAOxLU0AQL1BQTg+jN0AgIECBAgQIAAAQIECBAg0FlAAO48fWcnQGAoIAAPiTxAgAABAgQIECBAgAABAgQIbCwgAG88HFsjQCBfQADOn4EdECBAgAABAgQIECBAgAABAvMCAvC8nTcJEGggIAA3GLIjEiBAgAABAgQIECBAgACBgwUE4IOH62gECKwLCMDrhlYgQIAAAQIECBAgQIAAAQIE8gQE4Dx7XyZAoICAAFxgSLZIgAABAgQIECBAgAABAgQIXAoIwC4HAQIEbgQEYNeDAAECBAgQIECAAAECBAgQqCwgAFeenr0TIBAuIACHE/sAAQIECBAgQIAAAQIECBAgECggAAfiWpoAgfoCAnD9GToBAQIECBAgQIAAAQIECBDoLCAAd56+sxMgMBQQgIdEHiBAgAABAgQIECBAgAABAgQ2FhCANx6OrREgkC8gAOfPwA4IECBAgAABAgQIECBAgACBeQEBeN7OmwQINBAQgBsM2REJECBAgAABAgQIECBAgMDBAgLwwcN1NAIE1gUE4HVDKxAgQIAAAQIECBAgQIAAAQJ5AgJwnr0vEyBQQEAALjAkWyRAgAABAgQIECBAgAABAgQuBQRgl4MAAQI3AgKw60GAAAECBAgQIECAAAECBAhUFhCAK0/P3gkQCBcQgMOJfYAAAQIECBAgQIAAAQIECBAIFBCAA3EtTYBAfQEBuP4MnYAAAQIECBAgQIAAAQIECHQWEIA7T9/ZCRAYCgjAQyIPECBAgAABAgQIECBAgAABAhsLCMAbD8fWCBDIFxCA82dgBwQIECBAgAABAgQIECBAgMC8gAA8b+dNAgQaCAjADYbsiAQIECBAgAABAgQIECBA4GABAfjg4ToaAQLrAgLwuqEVCBAgQIAAAQIECBAgQIAAgTwBATjP3pcJECggIAAXGJItEiBAgAABAgQIECBAgAABApcCArDLQYAAgRsBAdj1IECAAAECBAgQIECAAAECBCoLCMCVp2fvBAiECwjA4cQ+QIAAAQIECBAgQIAAAQIECAQKCMCBuJYmQKC+gABcf4ZOQIAAAQIECBAgQIAAAQIEOgsIwJ2n7+wECAwFBOAhkQcIECBAgAABAgQIECBAgACBjQUE4I2HY2sECOQLCMD5M7ADAgQIECBAgAABAgQIECBAYF5AAJ638yYBAg0EBOAGQ3ZEAgQIECBAgAABAgQIECBwsIAAfPBwHY0AgXUBAXjd0AoECBAgQIAAAQIECBAgQIBAnoAAnGfvywQIFBAQgAsMyRYJECBAgAABAgQIECBAgACBSwEB2OUgQIDAjYAA7HoQIECAAAECBAgQIECAAAEClQUE4MrTs3cCBMIFBOBwYh8gQIAAAQIECBAgQIAAAQIEAgUE4EBcSxMgUF9AAK4/QycgQIAAAQIECBAgQIAAAQKdBQTgztN3dgIEhgIC8JDIAwQIECBAgAABAgQIECBAgMDGAgLwxsOxNQIE8gUE4PwZ2AEBAgQIECBAgAABAgQIECAwLyAAz9t5kwCBBgICcIMhOyIBAgQIECBAgAABAgQIEDhYQAA+eLiORoDAuoAAvG5oBQIECBAgQIAAAQIECBAgQCBPQADOs/dlAgQKCAjABYZkiwQIECBAgAABAgQIECBAgMClgADschAgQOBGQAB2PQgQIECAAAECBAgQIECAAIHKAgJw5enZOwEC4QICcDixDxAgQIAAAQIECBAgQIAAAQKBAgJwIK6lCRCoLyAA15+hExAgQIAAAQIECBAgQIAAgc4CAnDn6Ts7AQJDAQF4SOQBAgQIECBAgAABAgQIECBAYGMBAXjj4dgaAQL5AgJw/gzsgAABAgQIECBAgAABAgQIEJgXEIDn7bxJgEADAQG4wZAdkQABAgQIECBAgAABAgQIHCwgAB88XEcjQGBdQABeN7QCAQIECBAgQIAAAQIECBAgkCcgAOfZ+zIBAgUEBOACQ7JFAgQIECBAgAABAgQIECBA4FJAAHY5CBAgcCMgALseBAgQIECAAAECBAgQIECAQGUBAbjy9OydAIFwAQE4nNgHCBAgQIAAAQIECBAgQIAAgUABATgQ19IECNQXEIDrz9AJCBAgQIAAAQIECBAgQIBAZwEBuPP0nZ0AgaGAADwk8gABAgQIECBAgAABAgQIECCwsYAAvPFwbI0AgXwBATh/BnZAgAABAgQIECBAgAABAgQIzAsIwPN23iRAoIGAANxgyI5IgAABAgQIECBAgAABAgQOFhCADx6uoxEgsC4gAK8bWoEAAQIECBAgQIAAAQIECBDIExCA8+x9mQCBAgICcIEh2SIBAgQIECBAgAABAgQIECBwKSAAuxwECBC4ERCAXQ8CBAgQIECAAAECBAgQIECgsoAAXHl69k6AQLiAABxO7AMECBAgQIAAAQIECBAgQIBAoIAAHIhraQIE6gsIwPVn6AQECBAgQIAAAQIECBAgQKCzgADcefrOToDAUEAAHhJ5gAABAgQIECBAgAABAgQIENhYQADeeDi2RoBAvoAAnD8DOyBAgAABAgQIECBAgAABAgTmBQTgeTtvEiDQQEAAbjBkRyRAgAABAgQIECBAgAABAgcLCMAHD9fRCBBYFxCA1w2tQIAAAQIECBAgQIAAAQIECOQJCMB59r5MgEABAQG4wJBskQABAgQIECBAgAABAgQIELgUEIBdDgIECNwICMCuBwECBAgQIECAAAECBAgQIFBZQACuPD17J0AgXEAADif2AQIECBAgQIAAAQIECBAgQCBQQAAOxLU0AQL1BQTg+jN0AgIECBAgQIAAAQIECBAg0FlAAO48fWcnQGAoIAAPiTxAgAABAgQIECBAgAABAgQIbCwgAG88HFsjQCBfQADOn4EdECBAgAABAgQIECBAgAABAvMCAvC8nTcJEGggIAA3GLIjEiBAgAABAgQIECBAgACBgwUE4IOH62gECKwLCMDrhlYgQIAAAQIECBAgQIAAAQIE8gQE4Dx7XyZAoICAAFxgSLZIgAABAgQIECBAgAABAgQIXAoIwC4HAQIEbgQEYNeDAAECBAgQIECAAAECBAgQqCwgAFeenr0TIBAuIACHE/sAAQIECBAgQIAAAQIECBAgECggAAfiWpoAgfoCAnD9GToBAQIECBAgQIAAAQIECBDoLCAAd56+sxMgMBQQgIdEHiBAgAABAgQIECBAgAABAgQ2FhCANx6OrREgkC8gAOfPwA4IECBAgAABAgQIECBAgACBeQEBeN7OmwQINBAQgBsM2REJECBAgAABAgQIECBAgMDBAgLwwcN1NAIE1gUE4HVDKxAgQIAAAQIECBAgQIAAAQJ5AgJwnr0vEyBQQEAALjAkWyRAgAABAgQIECBAgAABAgQuBQRgl4MAAQI3AgKw60GAAAECBAgQIECAAAECBAhUFhCAK0/P3gkQCBcQgMOJfYAAAQIECBAgQIAAAQIECBAIFBCAA3EtTYBAfQEBuP4MnYAAAQIECBAgQIAAAQIECHQWEIA7T9/ZCRAYCgjAQyIPECBAgAABAgQIECBAgAABAhsLCMAbD8fWCBDIFxCA82dgBwQIECBAgAABAgQIECBAgMC8gAA8b+dNAgQaCAjADYbsiAQIECBAgAABAgQIECBA4GABAfjg4ToaAQLrAgLwuqEVCBAgQIAAAQIECBAgQIAAgTwBATjP3pcJECggIAAXGJItEiBAgAABAgQIECBAgAABApcCArDLQYAAgRsBAdj1IECAAAECBAgQIECAAAECBCoLCMCVp2fvBAiECwjA4cQ+QIAAAQIECBAgQIAAAQIECAQKCMCBuJYmQKC+gABcf4ZOQIAAAQIECBAgQIAAAQIEOgsIwJ2n7+wECAwFBOAhkQcIECBAgAABAgQIECBAgACBjQUE4I2HY2sECOQLCMD5M7ADAgQIECBAgAABAgQIECBAYF5AAJ638yYBAg0EBOAGQ3ZEAgQIECBAgAABAgQIECBwsIAAfPBwHY0AgXUBAXjd0AoECBAgQIAAAQIECBAgQIBAnoAAnGfvywQIFBAQgAsMyRYJECBAgAABAgQIECBAgACBSwEB2OUgQIDAjYAA7HoQIECAAAECBAgQIECAAAEClQUE4MrTs3cCBMIFBOBwYh8gQIAAAQIECBAgQIAAAQIEAgUE4EBcSxMgUF9AAK4/QycgQIAAAQIECBAgQIAAAQKdBQTgztN3dgIEhgIC8JDIAwQIECBAgAABAgQIECBAgMDGAgLwxsOxNQIE8gUE4PwZ2AEBAgQIECBAgAABAgQIECAwLyAAz9t5kwCBBgLvBuCfP3/+R+PHjx//+/i/x/8e///nf/bx767++fOCr77xzgiev/fOO54hQIAAAQIECBAgQIAAAQIEzhAQgM+Yo1MQIBAksBKAn4OtABw0JMsSIECAAAECBAgQIECAAAEClwICsMtBgACBG4E//vjj1799/Jr3c8T9/AvfV7/OFYBdLQIECBAgQIAAAQIECBAgQCBbQADOnoDvEyCwtYAAvPV4bI4AAQIECBAgQIAAAQIECBAYCAjArggBAgRuBF4F4OdfAX+87hfArhEBAgQIECBAgAABAgQIECCwo4AAvONU7IkAgW0EBOBtRmEjBAgQIECAAAECBAgQIECAwISAADyB5hUCBPoICMB9Zu2kBAgQIECAAAECBAgQIEDgRAEB+MSpOhMBAl8m8NUB+PHnIz5v8POflLjb+Ks/M/HOQV998533PEOAAAECBAgQIECAAAECBAjUFxCA68/QCQgQCBTYJQB/RNzZkDv7XiCrpQkQIECAAAECBAgQIECAAIFvEhCAvwnaZwgQqClQPQCLvzXvnV0TIECAAAECBAgQIECAAIGvEhCAv0rSOgQIHCnwXQF4FGpnfwE8WvfIoTkUAQIECBAgQIAAAQIECBAg8K+AAOwyECBA4EZAAHY9CBAgQIAAAQIECBAgQIAAgcoCAnDl6dk7AQLhAgJwOLEPECBAgAABAgQIECBAgAABAoECAnAgrqUJEKgv8ByAf/78+e+hHn+W4erPM3x+9uOlq+fe+fMO7zzzStufgKh/B52AAAECBAgQIECAAAECBAisCAjAK3reJUDgeIHZAPwq2ArAx18XByRAgAABAgQIECBAgAABAtsJCMDbjcSGCBDYSUAA3mka9kKAAAECBAgQIECAAAECBAj8roAA/LtinidAoJWAANxq3A5LgAABAgQIECBAgAABAgSOExCAjxupAxEg8JUCXxmAn/8m8GOf7/x933eeeXVufwP4K2+DtQgQIECAAAECBAgQIECAQD0BAbjezOyYAIFvFPgcgD8C7uegevcfgXsVbAXgbxycTxEgQIAAAQIECBAgQIAAAQK/BARgF4EAAQI3AqMA/Ii6z7+0FYBdKwIECBAgQIAAAQIECBAgQGAHAQF4hynYAwEC2wo8AvDj17/PvwAWgLcdnY0RIECAAAECBAgQIECAAAEC/wgIwK4BAQIEbgSuAvAjBL8KwI9/9/yr4Ks/AXH1zz9vy98Adk0JECBAgAABAgQIECBAgACBGQEBeEbNOwQItBEQgNuM2kEJECBAgAABAgQIECBAgMCRAgLwkWN1KAIEvkrgLgB//lXu85+G+Pj+q/9g3Kt9jX4BfPWL4nfO+Pwr5Hfe8QwBAgQIECBAgAABAgQIECBwjoAAfM4snYQAgQCBjwD8CL3PwVcADgC3JAECBAgQIECAAAECBAgQIPClAgLwl3JajACB0wR+NwC/+iXwh8nd3/CN+gWwX/+edhudhwABAgQIECBAgAABAgQI/L6AAPz7Zt4gQKCRwFUAfv6Pvz3/mYbn+CoAN7o0jkqAAAECBAgQIECAAAECBDYSEIA3GoatECCwn8Cff/7579/y/RxxvyoA34Xhh8bs3wD2C+D97pMdESBAgAABAgQIECBAgACB7xYQgL9b3PcIECgl8AjAzxH2VQC++/MPH4d+FWQF4FLXwWYJECBAgAABAgQIECBAgEA5AQG43MhsmACB7xR4FYBf/cffnkPuqxg8E4CvovI7Bn4B/I6SZwgQIECAAAECBAgQIECAwNkCAvDZ83U6AgQWBQTgRUCvEyBAgAABAgQIECBAgAABAqkCAnAqv48TILC7wOcAfPXL348zPP4kxOM8r/5u76v/MNzH83e/1J39BbBf/+5+s+yPAAECBAgQIECAAAECBAh8j4AA/D3OvkKAQFGBdwLwq7/jKwAXHbhtEyBAgAABAgQIECBAgACBwwQE4MMG6jgECHytwF9//fVrwY+g+/lXvs+/Bh79uvfq7/8+1n6166s13zmhXwC/o+QZAgQIECBAgAABAgQIECBwvoAAfP6MnZAAAQIECBAgQIAAAQIECBAgQIAAAQL/Efjx/3/+x4UAAQIECBAgQIAAAQIECBAgQIAAAQIEzhMQgM+bqRMRIECAAAECBAgQIECAAAECBAgQIEDgl4AA7CIQIECAAAECBAgQIECAAAECBAgQIEDgUAEB+NDBOhYBAgQIECBAgAABAgQIECBAgAABAgQEYHeAAAECBAgQIECAAAECBAgQIECAAAEChwoIwIcO1rEIECBAgAABAgQIECBAgAABAgQIECAgALsDBAgQIECAAAECBAgQIECAAAECBAgQOFRAAD50sI5FgAABAgQIECBAgAABAgQIECBAgAABAdgdIECAAAECBAgQIECAAAECBAgQIECAwKECAvChg3UsAgQIECBAgAABAgQIECBAgAABAgQICMDuAAECBAgQIECAAAECBAgQIECAAAECBA4VEIAPHaxjESBAgAABAgQIECBAgAABAgQIECBAQAB2BwgQIECAAAECBAgQIECAAAECBAgQIHCowN+2ts5Rudo9wgAAAABJRU5ErkJggg==;" vertex="1" parent="1">
          <mxGeometry x="40" y="410" width="1408" height="700" as="geometry" />
        </mxCell>
      </root>
    </mxGraphModel>
  </diagram>
</mxfile>
